<svg width="360" height="460" viewBox="0 0 360 460" fill="none" xmlns="http://www.w3.org/2000/svg">
<mask id="mask0_1827_8805" style="mask-type:alpha" maskUnits="userSpaceOnUse" x="0" y="0" width="360" height="460">
<rect width="360" height="460" fill="#D9D9D9"/>
</mask>
<g mask="url(#mask0_1827_8805)">
<path d="M20.3597 425.03C20.3056 424.971 20.2366 424.922 20.1668 424.883C20.0273 424.805 19.872 424.747 19.7588 424.635C19.6687 424.545 19.6292 424.398 19.6214 424.28C19.0274 424.44 17.8887 424.306 17.3427 424.011C16.896 423.77 16.6005 423.361 16.6123 422.842C16.6446 421.42 18.4463 420.616 19.6054 420.375C19.7707 420.341 19.954 420.213 19.9217 420.047C19.8451 419.655 19.287 419.959 19.0698 419.982C18.7 420.022 18.3758 419.874 18.0311 419.752C12.6376 419.358 16.8803 419.257 16.7198 417.724C8.07631 419.779 22.2492 410.288 13.5967 413.364C11.6389 413.741 7.27891 411.172 7.24781 413.151C4.86171 413.381 2.99212 411.021 4.46272 408.986C5.34102 408.49 6.91021 410.722 7.24921 408.91C9.81621 408.494 7.07861 406.482 9.32681 406.717C13.0112 408.666 11.6258 394.421 6.16122 396.965C3.96822 396.275 2.22751 399.824 1.62091 401.018C-1.16039 401.599 -4.08319 399.03 -6.20219 399.908C-7.86779 399.384 -9.12588 397.986 -10.1036 396.604C-10.6978 395.763 -11.2164 394.87 -11.6936 393.959C-11.9334 393.501 -12.1212 392.977 -12.414 392.553C-12.6818 392.165 -12.902 391.963 -12.7979 391.426C-12.7255 391.053 -12.5357 390.715 -12.3638 390.376C-12.0148 389.687 -11.7302 388.965 -11.5155 388.224C-11.4139 387.873 -10.7905 386.458 -11.4506 386.233C-11.8411 386.099 -12.4707 386.797 -12.7122 387.011C-13.267 387.504 -13.7946 388.045 -14.4148 388.457C-14.6564 388.618 -14.933 388.798 -15.2254 388.846C-15.4686 388.886 -15.6969 388.701 -15.8754 388.719C-14.7216 388.605 -14.8244 387.506 -15.8897 387.36C-16.3791 387.293 -16.6973 387.716 -16.9467 387.175C-17.1225 386.793 -16.9725 386.391 -17.5826 386.451C-18.5911 386.549 -19.032 388.031 -20.1218 387.476C-20.4212 387.324 -20.4225 387.115 -20.8408 387.12C-21.349 387.126 -21.7005 387.408 -22.0088 387.785C-22.6431 388.563 -23.0645 389.562 -24.2523 389.43C-25.3713 389.305 -26.5316 388.35 -26.8216 390.046C-29.8824 391.002 -28.0795 392.897 -28.9911 395.063C-30.3067 396.134 -32.4301 399.135 -33.8957 396.616C-34.8698 397.891 -32.4448 397.729 -31.9622 398.417C-27.305 394.171 -30.961 402.318 -34.4979 400.409C-34.3811 399.451 -34.5981 399.51 -35.4579 399.371C-36.0247 398.769 -35.3025 397.447 -36.6533 397.493C-36.5311 399.484 -38.2197 398.006 -38.5405 400.148C-38.932 400.401 -39.8402 400.019 -40.1279 400.348C-40.5645 400.845 -39.4992 401.579 -39.12 401.753C-39.0129 401.803 -38.8975 401.848 -38.8234 401.939C-37.9047 403.076 -42.2311 403.137 -41.7726 404.642C-41.5808 405.272 -42.7669 405.638 -43.1561 405.652C-43.7145 405.673 -44.9821 405.202 -45.0045 404.478C-45.014 404.17 -43.7398 403.342 -44.2398 403.18C-44.9109 402.13 -45.6822 401.8 -46.8181 402.213C-47.6027 402.497 -48.6476 402.94 -48.3494 403.991C-48.2482 404.347 -47.8646 404.769 -47.8679 405.143C-47.8701 405.386 -48.1679 405.67 -48.1683 405.689C-48.1324 404.164 -49.9369 404.53 -49.335 406.064C-49.1319 406.582 -48.1575 407.862 -47.5129 407.181C-46.9103 408.165 -47.938 409.345 -48.1828 410.281C-48.2539 410.553 -48.2067 411.231 -48.5782 411.148C-48.8028 411.098 -48.9944 410.567 -49.113 410.391C-49.3149 410.092 -49.7098 409.934 -49.6988 409.518C-49.6908 409.216 -49.521 409.054 -49.8683 408.864C-50.4916 408.523 -51.3979 408.969 -51.8857 409.353C-52.308 409.424 -52.8786 409.488 -53.1282 409.059C-53.2085 408.922 -53.1492 408.733 -53.2141 408.608C-53.5446 407.969 -54.3179 408.666 -54.8415 408.632C-55.3124 408.601 -55.7692 408.396 -56.2452 408.429C-56.8343 408.47 -57.7337 408.091 -58.2879 408.289C-58.64 408.416 -58.5656 408.962 -59.0265 409.17C-59.5872 409.423 -60.7876 409.107 -60.738 410.053C-60.688 411.006 -60.9452 411.154 -61.3661 411.939C-61.8509 412.844 -62.0959 414.09 -62.2688 415.106C-62.5151 416.553 -61.4722 415.98 -60.7881 415.434C-59.9443 414.76 -59.3139 413.858 -58.7686 412.936C-58.8647 411.369 -59.4258 412.674 -58.1651 411.272C-58.3575 409.784 -57.7461 410.692 -57.3573 409.656C-55.6062 408.204 -57.6002 411.173 -55.8115 411.195C-57.3668 412.639 -56.8086 415.797 -54.3026 414.847C-54.1544 415.506 -54.0988 416.049 -53.8206 416.672C-53.6183 417.126 -53.5851 418.382 -52.9906 418.388C-52.7778 418.39 -52.5737 418.26 -52.4679 418.076C-52.3899 417.94 -52.3571 417.773 -52.2422 417.667C-52.0801 417.516 -51.8268 417.545 -51.609 417.583C-51.3791 417.623 -51.1407 417.667 -50.9505 417.802C-50.3324 418.242 -51.3599 419.014 -51.2428 419.683C-51.1936 419.965 -51.0536 420.47 -50.7698 420.614C-50.6199 420.69 -49.8688 420.536 -49.9738 420.422C-50.7953 419.53 -49.5066 419.357 -49.052 420.026C-47.687 419.804 -49.4774 421.965 -48.056 420.841C-44.0515 418.9 -45.4366 427.424 -43.1651 428.771C-44.3268 428.105 -45.3657 427.161 -46.8981 427.104C-46.9119 427.458 -47.1773 428.258 -47.3614 428.325C-47.97 426.884 -47.4576 429.042 -48.0081 428.711C-48.3061 428.532 -49.3625 427.721 -49.4404 427.327C-49.4916 427.068 -49.3907 427.124 -49.3817 426.996C-49.3804 426.978 -49.089 426.912 -49.0683 426.765C-49.0327 426.511 -49.3569 426.406 -49.4174 426.221C-49.7677 425.152 -48.5901 424.904 -48.6098 423.906C-48.6216 423.31 -48.9734 422.993 -49.4497 422.697C-50.3282 422.152 -51.6495 421.873 -50.808 420.588C-55.4914 416.508 -55.3949 427.211 -51.8967 429.209C-51.4374 430.58 -49.9107 428.04 -50.3344 430.171C-47.178 432.841 -48.2921 435.385 -51.3463 438.472C-46.2588 437.711 -41.8853 426.125 -36.5815 431.881C-37.9352 434.777 -40.1709 434.305 -37.6432 437.829C-29.4177 436.688 -29.2421 422.994 -38.2118 428.645C-38.5302 428.022 -40.7843 428.152 -39.5115 427.108C-32.023 425.162 -40.9646 418.304 -38.5085 418.404C-36.3731 417.388 -36.5194 415.603 -35.1726 414.905C-34.7049 415.009 -35.1223 416.674 -34.1829 416.065C-33.6316 417.601 -32.5732 416.832 -32.1735 417.007C-32.2581 416.476 -32.2834 415.882 -32.4838 415.273C-31.727 418.676 -28.3355 419.289 -29.9116 422.121C-29.606 427.353 -22.7909 427.976 -23.8285 433.252C-25.1311 433.67 -29.4895 435.898 -28.4808 437.131C-22.3093 436.36 -20.8454 434.883 -25.9039 440.09C-22.7688 442.063 -29.6329 446.536 -27.964 448.958C-28.7791 448.823 -30.2701 450.166 -29.2313 450.753C-31.1596 450.948 -31.3392 452.592 -31.8451 454.136C-32.6504 457.037 -38.7233 453.154 -37.1865 456.767C-35.1251 457.395 -38.7408 459.718 -37.0797 460.193C-35.2732 461.686 -37.6465 464.847 -36.0921 465.62C-35.9034 466.29 -38.4249 465.821 -37.5941 468.005C-32.7961 471.079 -30.1752 478.301 -36.4721 482.196C-37.2088 480.889 -38.5713 479.99 -39.7017 481.21C-38.5855 482.106 -35.5998 483.818 -37.6979 484.65C-34.5957 485.366 -37.6793 485.446 -36.6118 486.117C-35.5537 485.829 -36.7655 486.988 -36.3034 487.234C-35.6489 486.943 -34.2252 487.745 -34.1518 486.896C-23.1532 487.258 -29.9992 490.855 -25.0439 490.409C-23.2983 490.314 -20.7856 486.675 -24.0661 485.783C-26.5055 484.433 -24.9801 482.007 -26.7094 480.668C-25.9606 463.715 -11.9389 471.3 -20.6024 475.942C-19.8824 472.799 -25.1857 472.489 -24.1351 475.799C-21.0292 476.526 -16.9818 483.854 -19.0107 488.369C-20.4418 492.929 -25.8082 499.334 -19.519 494.524C-16.3641 492.638 -12.3083 492.364 -10.9705 488.299C-10.0634 488.626 -6.47308 485.728 -8.33778 486.327C-10.5895 486.683 -7.92118 485.19 -8.40228 484.369C-13.3439 483.784 -10.0307 479.175 -7.01349 479.427C-6.39339 480.653 -5.15249 479.77 -4.56509 480.904C-4.17289 483.885 -2.38749 481.564 -1.79159 483.082C0.0302122 483.891 -1.78499 482.397 -0.909187 481.582C0.895413 479.798 -0.695489 476.835 1.07791 475.563C4.58991 466.224 2.85731 452.388 9.81541 443.237C8.85291 443.172 8.69541 442.617 9.25891 441.819C9.86671 442.206 11.1801 442.25 11.0866 441.188C7.52142 438.539 12.9415 437.937 12.7463 434.833C13.207 435.339 13.6862 434.216 14.0565 433.807C14.2173 433.2 14.5862 434.399 15.003 433.985C14.7148 433.342 15.4436 432.793 15.5835 432.211C15.7209 431.639 15.9233 430.88 16.5108 430.603C16.8556 430.441 17.2151 430.632 17.5552 430.512C17.7652 430.438 17.8275 430.21 17.9888 430.127C18.1766 430.03 18.4322 430.107 18.6404 430.006C18.8258 429.916 18.9768 429.732 18.9766 429.526C18.9764 429.197 18.6269 428.982 18.5123 428.673C18.1933 427.815 19.0775 427.805 19.5185 427.355C19.8498 427.017 19.6815 426.699 19.7663 426.282C19.8529 425.856 20.5113 425.597 20.4638 425.237C20.4534 425.157 20.4138 425.089 20.3597 425.03Z" stroke="#1D201F" stroke-width="0.5" stroke-linejoin="round"/>
<path d="M87.3813 366.269C85.4558 368.074 88.6482 366.41 89.5418 366.782C90.0793 367.399 89.1465 370.557 90.2637 368.419C90.3983 366.461 93.7089 366.253 91.1852 367.919C91.1098 368.51 91.7884 367.682 92.0015 367.64C94.0151 368.414 93.7695 364.989 93.4249 363.761C91.9862 363.243 86.8448 365.096 87.3813 366.269Z" stroke="#1D201F" stroke-width="0.5" stroke-linejoin="round"/>
<path d="M105.188 390.896C104.656 391.308 103.669 391.263 103.047 391.147C100.865 389.583 106.513 388.279 103.424 387.3C104.669 386.917 102.517 385.083 102.205 384.407C101.642 386.627 101.127 383.574 100.514 383.34C101.324 382.83 103.456 374.495 101.527 376.442C101.021 377.417 100.842 376.253 101.621 376.102C101.64 374.472 95.8368 378.343 94.8688 375.92C94.3034 373.984 89.6346 375.491 90.5815 371.752C89.3577 371.666 89.9324 371.972 88.8334 370.918C89.2501 372.08 87.8737 371.064 88.1742 372.273C86.6989 372.682 88.1056 368.332 86.0978 369.95C86.2033 371.978 85.0262 369.06 84.9591 371.815C78.61 370.006 81.5112 369.327 77.0657 372.552C78.5855 371.081 78.0679 371.394 76.7318 371.351C77.0369 373.816 73.725 374.728 72.15 376.318C72.098 375.094 71.7008 376.089 70.8282 375.732C70.1463 375.646 69.5987 374.567 68.6548 374.799C74.4234 379.818 69.4014 388.187 61.3924 385.136C58.7487 385.62 58.3107 387.741 54.9863 387.737C51.8923 385.774 51.6011 378.219 47.5779 380.366C47.4676 381.141 48.5839 380.257 48.7376 381.101C48.5966 381.575 48.6566 382.566 47.9019 382.246C38.1653 388.382 45.6592 398.072 24.2626 406.203C24.2249 406.488 25.285 406.996 24.4145 406.988C24.0536 406.418 23.1622 407.034 22.8002 407.284C22.6072 407.418 21.1427 408.371 21.7794 408.607C21.899 408.651 22.125 408.444 22.2291 408.398C22.3907 408.328 22.7525 408.1 22.9399 408.137C23.2318 408.194 23.1132 408.147 23.1271 408.409C23.1349 408.556 22.8869 408.761 23.0115 408.915C23.1577 409.096 23.9202 408.857 24.024 408.74C24.6523 408.028 29.0526 404.457 29.4751 405.407C29.6742 403.802 33.5588 405.644 31.6766 405.83C33.353 406.747 30.7438 405.919 31.9528 407.54C31.2769 408.031 31.6178 408.187 31.8713 408.801C34.9434 408.727 26.2784 411.131 36.0297 410.994C35.4702 411.243 34.9485 411.543 35.1137 412.276C35.2549 412.902 35.8008 412.784 36.3129 412.942C35.7059 413.473 36.1312 413.297 36.4426 413.589C36.9712 414.085 35.5965 414.918 35.2446 415.187C35.4943 415.5 35.1163 416.044 34.8768 416.279C34.6472 415.898 35.0002 415.592 34.1064 415.745C34.0248 414.902 32.7611 413.979 31.7737 414.972C32.9544 417.367 31.8182 413.817 33.7413 415.754C33.6705 415.682 33.1291 416.368 33.1005 416.491C33.0178 416.849 33.1629 416.908 33.3821 417.119C33.9068 417.626 34.3065 418.032 34.3057 418.842C34.3054 419.175 34.1824 419.5 34.1609 419.829C34.1367 420.2 34.2805 422.593 35.1534 422.268C35.1371 422.722 35.4064 423.027 35.7378 423.295C35.8454 423.382 36.6605 424.059 36.7355 424.045C36.5283 424.083 36.326 424.012 36.1142 424.014C35.7573 424.018 35.1937 424.374 35.6625 424.8C35.7296 424.861 35.8185 424.892 35.9055 424.917C36.4928 425.09 37.0265 424.917 37.586 424.996C37.992 425.054 38.2512 425.453 38.6219 425.577C38.8878 425.666 39.0097 425.54 39.2676 425.505C39.6473 425.454 40.0376 425.517 40.419 425.546C40.7449 425.571 41.0753 425.597 41.3833 425.707C42.0431 425.941 42.1624 426.826 41.7614 427.352C41.4782 427.723 40.9977 427.891 40.6784 428.232C40.5317 428.388 40.4239 428.576 40.3174 428.763C40.0975 429.147 39.8775 429.532 39.6576 429.917C39.5764 430.059 39.493 430.208 39.4858 430.371C39.4455 431.29 40.5946 430.683 40.9994 430.593C41.3957 430.505 41.8002 430.512 42.1841 430.65C42.8325 430.883 43.3031 431.447 43.9603 431.658C44.3392 431.779 44.7302 431.751 45.1055 431.63C45.7319 431.427 46.2415 430.969 46.9196 430.928C47.2418 430.909 47.5142 430.898 47.8127 430.789C47.9364 430.744 48.0583 430.699 48.1879 430.672C48.4311 430.621 48.6843 430.61 48.9211 430.697C49.7252 430.991 49.9559 432.105 50.0828 432.836C54.3312 432.878 49.1072 429.987 49.6016 427.963C52.4455 427.713 50.641 425.383 51.1087 423.32C51.9144 419.105 53.3012 424.176 55.9483 417.838C57.0565 415.957 56.834 416.562 57.9717 416.88C57.507 415.44 58.5298 415.076 58.9445 413.888C59.8031 412.219 57.7187 410.285 59.186 409.987C59.6811 409.415 59.2396 408.528 60.0007 408.056C61.8724 408.657 60.2734 410.096 61.8659 407.596C62.8391 408.095 67.0585 406.08 64.3531 406.26C62.3229 406.292 66.8356 405.23 67.9142 404.515C69.2005 404.22 68.5154 404.012 68.243 403.08C68.6574 400.984 69.0268 402.183 68.9241 403.675C76.5431 399.607 82.2772 406.989 86.6445 411.493C88.5272 414.977 88.2231 410.767 88.8943 408.952C90.256 399.557 100.553 394.903 105.188 390.896Z" stroke="#1D201F" stroke-width="0.5" stroke-linejoin="round"/>
<path d="M30.1328 373.125C29.1928 373.612 27.5578 374.835 28.1603 375.957C29.1565 375.446 31.2906 374.42 30.1328 373.125Z" stroke="#1D201F" stroke-width="0.5" stroke-linejoin="round"/>
<path d="M55.2129 372.003C55.3926 372.915 57.0969 375.789 57.4878 373.766C56.4865 373.532 58.0014 373.248 57.4463 372.629C56.7802 371.915 55.814 370.247 55.2129 372.003Z" stroke="#1D201F" stroke-width="0.5" stroke-linejoin="round"/>
<path d="M54.7464 373.134C53.6542 372.835 52.481 374.53 53.4556 375.114C54.854 375.479 56.8178 372.684 54.7464 373.134Z" stroke="#1D201F" stroke-width="0.5" stroke-linejoin="round"/>
<path d="M56.5876 298.692C56.8702 299.906 57.0737 301.062 58.5501 301.165C57.7826 302.835 59.8351 301.416 60.1525 301.643C61.082 301.961 62.0378 302.197 61.5138 300.909C63.4206 300.781 62.1921 298.769 63.2076 298.044C61.8477 296.769 61.0445 296.096 59.6759 294.765C59.0217 296.044 55.8718 296.273 56.5876 298.692Z" stroke="#1D201F" stroke-width="0.5" stroke-linejoin="round"/>
<path d="M112.926 362.139C109.739 366.117 103.487 370.789 103.465 375.135C102.232 376.092 104.422 375.639 104.839 375.286C103.843 379.764 109.111 375.976 111.422 375.207C113.456 374.626 111.299 372.736 110.79 371.872C108.118 369.058 118.009 361.949 112.926 362.139Z" stroke="#1D201F" stroke-width="0.5" stroke-linejoin="round"/>
<path d="M178.229 263.396C177.437 261.985 177.238 263.557 176.592 263.869C176.038 263.585 175.02 262.568 175.367 263.628C174.346 263.441 174.128 263.972 173.432 263.259C172.726 264.21 174.774 264.537 174.558 265.602C176.126 264.535 177.755 265.35 178.229 263.396Z" stroke="#1D201F" stroke-width="0.5" stroke-linejoin="round"/>
<path d="M214.361 237.135C220.105 239.129 231.178 225.63 221.449 226.421C221.144 223.753 226.286 217.679 222.946 216.643C220.238 220.247 213.141 225.478 215.355 231.063C221.318 226.398 215.758 236.165 214.361 237.135Z" stroke="#1D201F" stroke-width="0.5" stroke-linejoin="round"/>
<path d="M266.029 418.911C262.453 414.103 260.711 418.159 265.363 420.708C265.46 418.887 266.76 420.007 266.029 418.911Z" stroke="#1D201F" stroke-width="0.5" stroke-linejoin="round"/>
<path d="M248.48 368.852C247.845 367.266 245.807 373.092 247.831 371.879C247.833 370.734 248.191 369.668 248.48 368.852Z" stroke="#1D201F" stroke-width="0.5" stroke-linejoin="round"/>
<path d="M253.349 356.922C253.834 355.41 251.776 354.501 250.605 354.346C248.096 356.78 254.061 361.632 253.349 356.922Z" stroke="#1D201F" stroke-width="0.5" stroke-linejoin="round"/>
<path d="M244.881 376.367C243.443 373.112 242.361 380.197 244.158 376.986C244.675 376.76 244.978 377.223 244.881 376.367Z" stroke="#1D201F" stroke-width="0.5" stroke-linejoin="round"/>
<path d="M256.777 381.363C256.391 377.539 251.774 383.201 255.296 383.095C256.279 383.053 256.999 382.33 256.777 381.363Z" stroke="#1D201F" stroke-width="0.5" stroke-linejoin="round"/>
<path d="M258.847 389.12C258.315 388.086 257.126 388.696 257.328 389.718C257.619 390.792 259.681 390.431 258.847 389.12Z" stroke="#1D201F" stroke-width="0.5" stroke-linejoin="round"/>
<path d="M116.591 373.788C116.589 373.783 116.584 373.78 116.583 373.775M295.327 274.787C295.252 274.862 295.185 274.9 295.123 274.912M334.785 166.508C332.358 162.697 336.026 161.423 331.478 165.217C332.308 164.19 332.686 162.694 332.77 161.371C331.938 161.39 332.818 159.447 333.228 159.013C332.911 157.709 332.714 156.175 332.37 154.234C331.768 149.673 330.017 148.178 327.726 144.484C329.372 142.874 329.821 142.328 327.053 141.225C321.937 118.808 307.403 127.213 316.171 90.3486C310.023 97.0393 304.481 86.7985 298.927 85.085C292.826 101.406 291.615 106.143 306.303 97.7207C311.227 89.8884 313.368 124.435 298.28 107.301C297.064 106.708 298.267 108.987 297.111 109.586C298.362 111.068 296.966 113.586 294.75 114.557C287.235 113.822 294.39 98.9749 287.544 98.445C285.469 100.461 284.466 100.485 282.722 97.808C278.983 95.1808 282.784 103.237 278.37 102.198C282.276 104.232 280.507 113.709 277.258 116.633C268.843 118.884 272.48 117.258 266.307 123.325C270.335 126.565 275.094 152.64 261.63 149.332C260.983 147.361 260.444 149.838 261.24 150.547C262.44 151.028 260.532 150.904 261.216 151.763C262.296 153.749 262.272 154.524 264.447 154.787C275.219 148.535 272.643 169.142 270.522 175.202C264.977 181.682 267.015 191.308 261.959 198.858C260.026 201.058 254.876 205.547 256.558 207.9C249.293 240.558 238.574 222.469 230.15 247.236C222.149 259.334 209.607 265.049 196.255 270.091C187.733 270.515 191.116 273.753 187.153 277.96C182.512 280.513 172.752 276.159 178.12 270.824C178.001 270.798 177.873 270.775 177.749 270.747C178.827 270.018 178.344 261.129 176.528 267.089C175.155 267.421 174.983 266.503 174.418 265.758C172.823 266.399 170.94 266.442 173.027 264.654C172.1 263.012 174.067 261.934 173.791 260.548C176.306 261.462 178.487 262.77 179.467 258.621C180.49 257.035 185.69 258.392 184.508 255.918C181.914 250.689 188.375 253.584 187.376 250.705C188.386 244.426 171.045 254.628 168.47 255.622C167.356 259.005 164.872 262.646 167.835 264.828C173.707 281.569 153.731 293.661 146.815 303.562C141.37 309.913 147.051 312.508 147.996 319.094C147.718 319.56 147.472 321.327 146.836 321.413C146.238 321.494 146.095 320.554 146.171 320.248C146.349 319.531 146.625 318.991 145.646 318.692C145.289 318.583 144.916 318.526 144.543 318.524C144.459 318.523 144.37 318.527 144.3 318.574C144.237 318.615 144.2 318.685 144.167 318.752C143.833 319.427 144.001 319.911 144.052 320.573C144.087 321.027 144.035 321.285 144.236 321.72C144.597 322.501 144.275 322.438 143.368 322.516C143.312 322.52 143.043 322.93 142.939 322.991C142.743 323.107 142.539 323.13 142.316 323.128C141.735 323.122 141.153 323.026 140.558 323.026C140.033 323.026 140.055 323.31 140.113 323.718C140.202 324.336 140.271 324.809 140.13 325.453C140.105 325.565 140.076 325.679 140.012 325.774C139.413 326.661 138.44 326.126 137.77 325.643C137.469 325.426 137.014 324.909 136.596 325.041C136.089 325.201 136.127 326.064 136.35 326.429C136.444 326.582 136.603 326.683 136.731 326.81C137.676 327.748 134.525 328.002 134.01 327.968C132.322 327.857 133.989 326.928 134.689 326.621C134.8 326.573 134.381 326.09 134.305 326.053C134.09 325.951 133.866 326.025 133.653 326.089C133.02 326.278 132.454 326.819 131.925 327.193C131.552 327.456 130.895 328.04 130.389 327.956C130.031 327.897 129.949 327.637 129.79 327.362C129.571 326.984 129.472 326.865 129.156 326.588C128.954 326.411 128.914 326.58 128.787 326.288C128.717 326.128 128.829 325.9 128.81 325.734C128.776 325.449 128.873 325.07 128.439 325.328C127.521 324.466 128.812 323.076 127.414 324.058C127.356 324.099 127.295 324.403 127.24 324.485C127.15 324.62 127.031 324.727 126.9 324.821C126.635 325.011 126.311 325.11 126.004 325.206C125.704 325.3 125.346 325.35 125.069 325.505C124.673 325.728 124.737 326.122 124.417 326.441C124.308 326.549 124.173 326.627 124.04 326.703C123.672 326.913 123.374 327.151 122.951 326.976C122.685 326.866 122.345 326.643 122.103 326.484C121.475 326.07 121.181 325.104 121.005 324.406C120.831 323.714 120.783 322.999 121.269 322.464C121.706 321.982 122.135 321.351 122.721 321.034C123.337 311.373 113.324 322.661 109.241 321.725C109.131 320.651 108.822 322.684 108.376 321.998C109.329 320.705 104.539 321.082 104.209 321.573C94.0064 320.834 85.2575 329.277 73.4013 327.296C72.8731 327.208 72.3242 326.873 71.7956 326.732C71.3225 326.606 70.8391 326.515 70.3507 326.476C69.5601 326.413 68.7673 326.493 68.008 326.724C66.7289 327.112 65.6575 327.918 64.4468 328.455C63.7922 328.745 63.0988 328.929 62.3783 328.909C61.1321 328.873 59.9993 328.228 58.8012 327.943C58.2656 327.816 57.7147 327.716 57.227 327.461C56.8894 327.284 56.5898 327.035 56.3545 326.735C55.8406 326.08 57.8288 325.771 58.2376 325.686C59.1132 325.504 60.0055 325.405 60.8773 325.204C61.2544 324.36 59.8314 324.507 59.3915 324.534C58.8997 324.564 58.4321 324.598 57.9463 324.568C57.4436 324.537 56.8897 324.558 56.4316 324.801C55.9471 325.058 55.7664 325.011 55.338 324.639C55.1013 324.434 54.8732 324.105 54.5521 324.04C53.8347 323.894 53.0615 324.226 52.5696 324.749C52.359 324.973 52.3291 325.223 52.165 325.46C51.9619 325.752 51.5918 325.897 51.2772 326.038C50.1302 326.55 48.8606 326.799 47.6415 327.075C46.8769 327.248 46.1051 327.392 45.3489 327.6C44.7629 327.762 43.9397 327.957 43.6755 328.591C43.6029 328.765 43.5917 328.958 43.5364 329.138C43.3074 329.885 41.4642 329.619 40.8321 329.663C40.4566 329.689 39.9967 329.713 39.6747 329.934C39.5223 330.039 39.0617 330.676 39.3433 330.856C44.5106 334.15 34.8898 337.756 32.6104 339.627C30.1051 344.774 23.8038 347.98 20.0836 351.626C17.3028 354.93 14.756 359.257 9.77095 359.191C9.22465 358.671 9.35856 359.852 8.84686 359.867C7.19246 359.143 6.40996 359.906 6.94486 361.253C5.05066 360.444 6.35386 363.572 4.50936 363.662C2.01936 364.517 3.34866 367.137 0.670557 367.531C1.87056 368.781 -1.95215 370.076 -3.05545 370.187C-4.31645 369.984 -4.86964 370.788 -5.56894 370.002C-6.61774 371.423 -7.33975 370.193 -7.65845 369.114C-10.3967 369.612 -12.4022 367.246 -13.8317 369.683C-13.6675 370.525 -13.1672 370.159 -13.0731 369.56C-11.9779 369.333 -9.34875 370.69 -11.6854 370.679C-15.05 372.618 -14.4857 369.756 -15.6397 373.729C-11.438 377.603 -18.3134 380.59 -14.69 382.459C-14.6961 383.783 -14.2224 385.124 -14.5753 386.622C-16.4893 387.454 -15.4639 386.448 -14.827 387.925C-14.5666 388.348 -11.4466 385.097 -11.5796 384.276C-10.291 382.724 -8.86955 383.124 -7.69345 385.139C-7.17755 384.803 -7.21995 384.376 -7.08155 385.22C-6.88335 385.463 -5.69145 384.768 -6.38035 385.357C-7.51385 389.269 -4.32265 385.275 -3.81875 387.758C-2.55215 387.757 -1.66774 386.975 -1.00564 385.969C-0.669544 385.459 -0.406245 384.905 -0.112745 384.37C0.363555 383.502 0.43765 383.584 1.30575 384.099C1.39985 384.155 1.50025 384.212 1.60975 384.211C1.72365 384.209 1.82525 384.144 1.92605 384.091C2.85745 383.603 3.48916 384.209 4.28926 384.562C4.94926 384.854 5.41065 384.803 6.08895 384.558C6.81895 384.295 7.48826 383.878 8.19776 383.567C8.87126 383.272 9.58295 383.278 10.2325 383.05C12.8125 382.148 15.3247 383.097 12.6095 385.684C12.3493 386.441 15.2835 386.213 13.2356 385.439C13.1143 385.393 13.7498 385.166 13.7657 385.163C14.1205 385.089 14.6036 385.274 14.9378 385.369C16.1558 385.719 17.3229 386.309 18.4338 386.908C19.6313 387.553 20.8115 388.266 21.8848 389.105C22.2731 389.409 22.6851 389.727 23.0014 390.109C23.3265 390.501 23.4224 391.099 24.095 390.818C24.6591 390.582 24.5005 390.156 24.3708 389.685C24.1309 388.813 23.0068 387.506 23.4788 386.562C27.2518 385.79 23.1781 391.856 28.2885 389.529C27.6332 388.543 29.9517 388.832 30.2468 389.216C28.6952 390.63 31.9998 390.614 30.9626 389.248C31.333 387.396 33.7584 388.582 34.4912 386.816C32.3129 386.348 31.7976 388.173 29.5944 388.346C29.866 386.267 24.9115 386.806 25.7439 385.897C27.5103 384.357 25.7935 382.06 26.0932 380.303C27.7725 380.168 27.5083 377.278 26.7006 377.048C27.6911 372.941 31.3882 370.224 36.0778 371.182C34.8435 372.4 35.1936 375.686 36.9736 375.783C35.6467 377.797 37.4609 378.194 38.4799 376.372C40.2048 378.218 41.8143 375.578 43.7915 375.388C43.9717 372.547 48.3132 372.409 52.1966 372.269C54.5308 372.238 52.6914 369.338 54.6616 370.362C58.1792 369.607 56.4426 374.456 58.9499 368.275C60.5918 368.792 58.7137 369.606 58.9721 370.062C61.0463 370.124 63.0131 371.854 63.6516 369.29C66.1064 368.365 63.61 369.1 65.1124 366.295C65.573 367.652 66.1146 367.636 66.1785 365.936C68.9777 365.506 65.5723 367.686 65.9235 368.104C68.4413 367.721 70.1214 366.283 71.9853 365.081C72.459 366.431 72.4816 364.552 72.7696 364.347C74.1 364.598 72.0162 367.157 73.7042 366.954C74.3812 367.753 73.9193 366.016 73.8538 365.787C75.0877 365.026 74.7 368.394 76.1525 368.294C77.1996 367.942 75.4677 365.954 79.3083 367.68C80.9908 368.48 80.6574 365.292 81.5991 364.689C82.3305 365.088 82.6136 365.715 82.2714 364.492C85.9023 362.357 81.3232 360.808 80.3317 363.602C79.1573 359.377 89.332 365.068 87.8164 359.93C88.9028 359.867 89.8566 358.439 90.7203 358.21C90.1236 358.033 87.369 357.061 89.4184 357.046C90.1111 358.156 91.6748 356.781 92.0053 356.869C93.236 357.906 94.117 355.73 95.3749 357.059C96.3311 355.631 97.3551 355.263 98.325 355.802C106.371 351.697 113.794 365.731 119.476 359.055C120.262 358.132 122.258 357.342 123.482 357.483C123.88 357.529 124.238 357.676 124.603 357.834C125.202 358.093 125.867 358.092 126.443 358.373C127.163 358.725 127.044 359.154 126.942 359.779C126.826 360.492 127.048 361.246 127.072 361.96C127.176 364.945 125.619 367.587 123.238 369.294C121.525 370.522 119.505 371.228 117.789 372.438C115.464 374.078 116.765 376.07 118.479 377.68C119.519 377.535 119.523 378.262 119.516 379.091C119.655 380.188 117.561 378.954 117.627 380.025C117.699 380.648 116.707 381.464 116.372 382.232C120.179 382.758 119.158 384.079 116.335 385.276C116.918 387.269 114.268 390.02 117.221 388.97C119.256 389.089 118.647 392.057 120.921 392.434C121.767 393.276 129.083 396.316 124.498 396.331C124 397.424 124.288 397.689 125.508 398.113C126.538 398.853 125.187 400.485 126.885 400.986C128.539 402.296 130.597 402.969 132.605 403.521C133.566 403.785 134.535 404.019 135.493 404.293C135.931 404.419 136.407 404.529 136.821 404.725C137.279 404.943 137.666 405.174 138.208 405.005C138.473 404.921 138.69 404.724 138.848 404.495C139.017 404.251 139.058 403.949 139.201 403.709C139.343 403.472 139.591 403.314 139.816 403.158C140.342 402.794 140.914 402.502 141.479 402.204C142.08 401.886 142.978 401.607 143.384 401.027C143.826 400.396 143.816 399.477 143.99 398.753C144.272 397.583 145.118 396.578 145.227 395.38C145.245 395.183 145.243 394.981 145.302 394.792C145.483 394.217 146.123 393.987 146.399 393.456C146.669 392.935 146.844 392.369 147.024 391.812C147.351 390.794 147.672 389.579 148.593 388.926C150.29 387.724 152.618 387.331 153.137 384.983C153.336 384.086 153.182 383.116 152.714 382.326C152.582 382.104 152.424 381.889 152.371 381.636C152.318 381.383 152.412 381.074 152.654 380.983C152.763 380.942 152.883 380.951 152.998 380.965C153.275 380.998 153.548 381.059 153.812 381.145C153.894 381.172 153.977 381.201 154.062 381.197C154.723 381.163 154.389 380.141 154.193 379.833C154.089 379.671 153.983 379.593 153.983 379.384C153.981 378.603 155.243 377.679 155.727 377.229C156.689 377.841 157.703 377.084 158.527 376.597C158.918 376.365 159.267 376.127 159.734 376.173C160.898 376.29 160.923 376.112 161.315 375.068C161.579 374.364 162.535 374.204 163.16 374.61C163.517 374.841 163.546 375.075 164.046 374.973C164.295 374.922 165.882 373.901 165.834 373.658C165.766 373.321 165.886 373.079 166.22 373.008C165.917 372.358 165.785 372.169 166.578 371.904C166.874 371.805 167.676 371.577 167.499 372.178C167.407 372.491 166.954 372.795 166.784 373.083C166.747 373.146 166.449 374.1 166.578 374.042C168.655 373.107 169.456 373.324 170.869 374.003C171.719 375.03 169.511 374.141 169.018 374.254C168.827 376.213 172.506 374.899 173.348 374.278C172.289 373.119 173.322 371.462 173.046 371.063C171.516 372.006 172.549 369.334 173.641 370.517C176.759 364.907 159.81 363.907 162.693 359.081C158.268 357.198 167.311 351.167 165.445 348.088C165.481 345.982 168.005 345.939 168.498 344.804C168.789 344.982 170.289 346.324 170.184 345.118C170.085 343.984 172.375 343.797 172.809 344.68C173.044 345.159 172.347 345.336 172.202 345.659C170.712 348.974 170.415 355.594 173.708 357.769C174.06 358.031 175.028 358.757 175.042 357.872C175.055 356.99 174.639 356.045 174.429 355.2C174.265 354.536 174.115 353.856 174.092 353.17C174.082 352.867 174.103 352.571 174.165 352.274C174.307 351.585 174.975 350.935 175.507 350.5C175.571 350.447 175.834 350.193 175.932 350.276C176.078 350.399 175.661 350.864 175.656 350.971C175.604 352.151 175.79 353.489 176.75 354.292C177.447 354.875 178.382 355.042 179.265 355.071C179.525 355.079 179.786 355.075 180.046 355.066C180.442 355.052 180.831 355.151 181.215 355.024C181.46 354.943 181.692 354.823 181.942 354.76C182.166 354.703 182.411 354.707 182.629 354.631C182.811 354.568 182.878 354.459 183.026 354.355C183.25 354.196 183.563 354.138 183.831 354.094C184.308 354.015 184.805 354.029 185.273 354.154C186.023 354.356 186.772 354.918 186.67 355.779C186.614 356.254 186.321 356.676 186.005 357.019C185.764 357.281 185.489 357.512 185.203 357.723C184.889 357.955 184.342 358.145 184.093 358.428C182.488 360.249 179.155 358.976 178.123 360.482C174.792 366.424 187.883 359.226 191.391 359.146C195.01 359.194 198.631 359.3 202.239 359.601C204.025 359.75 205.806 359.947 207.578 360.215C209.204 360.46 210.903 361.044 212.534 361.131C212.912 361.151 213.258 361.111 213.579 360.888C214.379 360.331 214.24 359.142 214.602 358.321C215.003 357.411 215.636 356.613 216.244 355.835C217.43 354.32 219.045 352.594 219.03 350.54C219.712 348.69 225.998 348.487 224.132 345.851C220.577 348.08 229.868 336.198 236.063 345.065C235.777 346.607 233.607 345.789 232.551 345.65C231.923 347.036 231.388 348.629 232.505 349.898C232.093 350.723 230.662 351.446 232 352.31C231.657 354.024 230.484 358.258 232.039 359.075C233.567 365.558 237.168 358.316 237.926 359.683C238.845 360.224 241.103 352.291 243.411 351.33C243.661 351.226 243.747 350.243 243.757 350.007C243.775 349.595 243.705 349.187 243.584 348.794C243.338 347.988 242.878 347.271 242.485 346.533C241.47 344.626 241.509 343.057 243.027 341.42C243.532 340.876 243.82 341.011 243.815 340.273C243.813 339.934 243.771 339.597 243.783 339.257C243.913 335.561 249.279 335.009 251.986 334.702C260.88 334.224 257.293 343.509 258.936 341.415C261.762 342.026 258.269 338.704 261.764 338.585C261.712 338.148 261.893 337.822 262.135 337.48C262.269 337.291 262.524 337.132 262.407 336.889C262.223 336.508 261.107 336.571 260.803 336.491C260.028 336.286 259.494 335.518 259.456 334.751C259.414 333.889 259.289 333.031 259.083 332.193C258.982 331.779 258.896 331.256 259.238 331.001C259.435 330.855 259.725 330.852 259.885 330.666C260.029 330.498 260.009 330.252 260.029 330.032C260.15 328.722 261.77 328.938 262.037 327.85C262.127 327.484 261.914 327.005 262.242 326.768C262.542 326.552 262.891 326.784 263.205 326.754C263.539 326.722 263.797 326.512 264.012 326.239C264.822 325.215 263.051 325.406 262.91 324.685C262.92 324.735 263.125 324.369 263.134 324.343C263.2 324.146 263.153 323.899 263.15 323.696C263.145 323.271 262.969 322.932 262.942 322.52C262.892 321.752 263.615 321.715 264.198 321.77C264.505 321.799 264.927 321.815 265.214 321.927C265.636 322.093 265.887 322.487 266.391 322.505C270.711 323.762 265.472 317.389 273.771 323.711C273.719 324.362 273.311 325.386 273.605 326.215C271.477 325.334 270.704 329.774 267.933 329.919C266.714 330.963 268.593 333.715 265.632 332.654C266.011 332.789 265.506 333.975 265.359 334.144C265.143 334.392 264.703 334.578 264.613 334.916C264.486 335.391 264.942 335.532 265.258 335.813C265.91 336.391 266.577 337.193 266.374 338.127C262.829 339.338 266.347 342.657 264.991 345.036C264.534 345.556 267.954 347.225 264.965 347.088C264.997 348.286 260.551 347.414 264.157 348.842C265.556 350.585 266.413 351.442 268.951 349.643C270.48 342.677 276.811 342.405 280.842 341.248C286.117 333.982 279.983 318.389 297.715 320.097C298.004 319.591 297.906 317.649 297.214 318.25C285.603 305.416 287.651 289.708 295.317 275.953C295.864 268.118 301.818 277.587 301.94 261.276C305.531 246.404 295.547 225.717 303.141 216.89C303.963 214.125 303.899 213.977 306.854 215.156C306.616 215.062 310.613 212.81 311.509 212.862C313.647 212.986 314.385 215.726 316.142 217.018C316.897 217.572 317.707 217.173 317.881 218.413C319.497 217.51 317.978 215.262 317.648 214.011C317.075 211.84 316.624 208.948 316.594 206.693C316.561 204.287 316.867 201.673 317.708 199.405C320.008 193.198 327.025 189.722 329.415 183.55C330.754 180.094 330.516 176.056 332.503 172.927C333.392 171.529 332.417 170.313 333.332 169.087C334.272 167.828 335.941 168.323 334.785 166.508Z" stroke="#1D201F" stroke-width="0.5" stroke-linejoin="round"/>
<path d="M252.087 59.6783C252.619 68.7759 255.997 59.2512 256.777 55.6177C255.606 56.0079 250.72 56.9815 252.087 59.6783Z" stroke="#1D201F" stroke-width="0.5" stroke-linejoin="round"/>
<path d="M401.839 -22.3162C401.833 -22.1829 401.658 -21.9637 401.591 -21.8472C401.511 -21.7081 401.426 -21.5715 401.335 -21.4393C401.194 -21.234 401.037 -21.0364 400.854 -20.8665C400.628 -20.6571 400.332 -20.4611 400.01 -20.4856C399.325 -20.5378 399.126 -21.4277 399.152 -21.9793C399.172 -22.3913 399.298 -22.7986 399.519 -23.1472C399.64 -23.3386 399.79 -23.5115 399.961 -23.6593C400.053 -23.7381 400.151 -23.8139 400.255 -23.8753C400.395 -23.9575 400.522 -23.9398 400.508 -24.148C400.502 -24.2463 400.474 -24.4074 400.4 -24.4805C400.331 -24.5487 400.175 -24.5714 400.083 -24.6041C399.88 -24.6759 399.677 -24.7523 399.468 -24.8062C398.719 -24.9999 397.969 -25.1944 397.22 -25.3895C396.583 -25.5552 395.882 -25.6756 395.237 -25.4868C394.485 -25.2671 394.364 -24.7509 393.859 -24.3182C393.171 -23.7283 392.08 -23.762 391.209 -23.8453C388.941 -24.0623 386.637 -25.2846 385.807 -27.5128C383.828 -29.2663 391.406 -26.2266 387.69 -28.3301C362.246 -37.8475 351.885 -64.4536 333.941 -82.8029C328.43 -93.4322 331 -78.8789 323.241 -81.5512C322.953 -84.8473 320.959 -83.0339 321.64 -80.6385C316.66 -68.7476 328 -58.5643 326.356 -45.3274C322.728 -36.1146 322.72 -26.9123 321.321 -17.6475C314.432 -7.04218 310.736 -15.8091 313.062 1.23271C320.827 8.18791 305.517 23.8231 302.143 13.2541C295.981 16.1681 293.56 13.6637 288.976 10.4513C285.897 5.63192 285.256 9.62322 281.037 9.05412C278.438 17.7039 288.731 18.4443 285.89 24.4238C279.834 25.955 281.122 37.2461 276.956 31.5084C272.321 36.9649 269.532 35.271 265.62 38.8732C263.588 42.0631 267.303 46.9712 264.413 50.2156C259.562 63.8755 284.669 56.8846 269.751 82.3255C269.744 89.5473 275.479 93.8851 279.977 87.3433C285.634 85.7869 283.699 84.6204 284.324 79.6283C285.466 78.0876 288.532 78.4007 289.564 76.4404C288.956 73.427 293.868 72.4342 292.92 75.5488C291.339 74.5101 292.809 78.6986 293.101 76.0402C300.426 74.7654 299.61 81.3202 307.472 74.437C305.445 69.9309 297.532 67.8616 294.95 62.6859C293.01 58.5749 284.423 62.4617 279.292 54.1829C279.457 46.9867 283.218 40.0478 290.711 41.3051C293.783 41.2665 295.418 44.1382 296.785 46.4576C297.8 48.1806 300.502 53.1213 303.119 51.3792C303.631 51.0384 304.12 50.6447 304.598 50.2569C305.642 49.4084 306.635 48.4979 307.641 47.6053C310.047 45.4699 312.516 43.3584 315.319 41.7539C318.156 40.1301 321.383 39.063 324.683 39.4542C328.932 39.9576 332.468 42.7232 335.21 45.8454C346.879 54.5897 362.05 58.9967 372.338 69.0985C373.467 47.1903 391.093 17.2778 416.556 25.9196C423.847 28.6027 413.745 20.8629 422.646 21.5445C422.322 21.5196 422.554 20.7056 422.695 20.582C422.969 20.3421 423.519 20.4826 423.82 20.5693C424.657 20.8106 426.057 22.3058 424.52 22.7807C424.229 22.8708 423.914 22.7938 423.61 22.8178C423.306 22.8418 422.961 23.0462 422.982 23.3505C422.997 23.5695 423.193 23.7278 423.383 23.8386C424.614 24.5588 426.287 24.4276 427.391 23.5244C428.002 23.0251 428.44 22.3251 429.106 21.903C429.617 21.5793 430.227 21.4422 430.743 21.128C431.26 20.8138 431.693 20.205 431.502 19.6311C431.45 19.4718 431.352 19.3285 431.314 19.1651C431.158 18.4977 431.876 18.1595 432.356 17.9411C432.973 17.6606 433.324 17.3997 433.868 17.0432C434.924 16.3495 436.571 16.1524 437.799 15.9411C438.421 15.834 443.36 15.0739 443.263 16.6194C443.819 7.78971 456.198 9.03761 451.522 6.74191C445.704 4.27551 442.62 16.6364 437.328 10.8494C437.98 9.54632 435.209 9.85882 434.557 9.48192C433.774 8.07132 436.082 8.14101 436.617 8.93421C442.321 13.0735 435.791 7.86221 435.494 4.90251C435.583 3.40231 434.854 1.75871 434.433 0.348015C434.022 -1.02939 433.727 -2.44869 433.173 -3.77969C432.658 -5.01749 431.761 -5.35699 430.826 -6.26079C428.89 -8.13049 428.174 -10.4911 429.983 -12.7444C432.718 -22.0799 447.814 -45.8676 429.083 -24.9493C429.104 -25.0656 428.261 -24.3342 428.351 -24.3466C409.093 -1.98938 402.235 -30.4965 401.839 -22.3162Z" stroke="#1D201F" stroke-width="0.5" stroke-linejoin="round"/>
<g clip-path="url(#clip0_1827_8805)">
<path d="M217.75 264.75C214.436 264.75 211.75 267.436 211.75 270.75C211.75 274.827 216.34 278.871 217.491 280.224C217.634 280.392 217.866 280.392 218.009 280.224C219.16 278.871 223.75 274.827 223.75 270.75C223.75 267.436 221.064 264.75 217.75 264.75ZM217.75 275.546C215.101 275.546 212.954 273.399 212.954 270.75C212.954 268.101 215.101 265.954 217.75 265.954C220.399 265.954 222.546 268.101 222.546 270.75C222.546 273.399 220.399 275.546 217.75 275.546Z" fill="#1D201F"/>
</g>
<path d="M174.966 204.99L174.75 204.99L174.75 207.894L174.966 207.894C175.014 207.078 175.098 206.91 175.578 206.91L182.658 206.91C183.138 206.91 183.222 207.078 183.27 207.894L183.486 207.894L183.486 204.99L183.27 204.99C183.222 205.806 183.138 205.974 182.658 205.974L179.382 205.974L179.382 201.15L182.658 201.15C183.138 201.15 183.222 201.318 183.27 202.146L183.486 202.146L183.486 199.23L183.27 199.23C183.222 200.058 183.138 200.226 182.658 200.226L175.578 200.226C175.098 200.226 175.014 200.058 174.966 199.23L174.75 199.23L174.75 202.146L174.966 202.146C175.014 201.318 175.098 201.15 175.578 201.15L178.974 201.15L178.974 205.974L175.578 205.974C175.098 205.974 175.014 205.806 174.966 204.99Z" fill="#1D201F"/>
<path d="M174.63 212.12C174.63 213.776 175.854 215.06 177.702 215.06C179.454 215.06 180.63 213.788 180.63 212.216C180.63 210.56 179.406 209.264 177.558 209.264C175.806 209.264 174.63 210.536 174.63 212.12ZM177.846 210.164C179.358 210.164 180.282 210.98 180.282 212.06C180.282 213.32 178.914 214.16 177.414 214.16C175.902 214.16 174.978 213.344 174.978 212.276C174.978 211.004 176.346 210.164 177.846 210.164Z" fill="#1D201F"/>
<path d="M174.63 218.449C174.63 219.025 174.906 219.637 175.374 220.117L175.554 219.985C175.35 219.661 175.206 219.301 175.206 218.929C175.206 218.425 175.422 218.041 176.154 218.041L179.994 218.041L179.994 219.913L180.51 219.997L180.51 218.041L181.806 218.041L181.806 217.825C181.086 217.561 180.498 217.249 180.234 216.517L179.994 216.517L179.994 217.213L175.914 217.213C175.002 217.213 174.63 217.741 174.63 218.449Z" fill="#1D201F"/>
<path d="M174.654 225.298C174.654 225.934 175.122 226.306 175.506 226.522L175.626 226.342C175.362 226.174 175.182 225.994 175.182 225.754C175.182 225.49 175.41 225.37 175.722 225.37L179.034 225.37C180.078 225.37 180.582 224.818 180.582 224.014C180.582 223.198 180.246 222.514 179.838 222.07C179.55 221.746 179.238 221.554 178.95 221.554C178.686 221.554 178.542 221.734 178.542 221.938C178.542 222.142 178.686 222.322 178.938 222.322C179.31 222.322 179.55 222.346 179.742 222.586C179.958 222.826 180.054 223.33 180.054 223.582C180.054 224.206 179.586 224.542 178.842 224.542L177.774 224.542L177.318 223.018C176.934 221.71 176.382 221.422 175.83 221.422C175.134 221.422 174.654 221.938 174.654 222.658C174.654 223.366 174.906 223.93 175.506 224.554C175.062 224.578 174.654 224.734 174.654 225.298ZM176.058 222.25C176.538 222.25 176.802 222.55 177.03 223.27L177.438 224.542L175.866 224.542C175.434 224.086 175.182 223.642 175.182 223.138C175.182 222.622 175.518 222.25 176.058 222.25Z" fill="#1D201F"/>
<path d="M174.966 227.561L174.75 227.561L174.75 230.225L174.966 230.225C175.014 229.373 175.062 229.193 175.53 229.193L179.07 229.193C179.574 229.505 179.874 229.937 179.874 230.273C179.874 230.513 179.67 230.681 179.67 231.005C179.67 231.281 179.874 231.497 180.15 231.497C180.438 231.497 180.63 231.293 180.63 230.981C180.63 230.417 180.366 229.961 179.994 229.589C179.85 229.433 179.67 229.301 179.502 229.181L180.63 229.265L180.63 229.049C180.45 228.641 180.306 228.137 180.246 227.657L180.03 227.657C179.946 228.137 179.742 228.353 179.022 228.353L175.53 228.353C175.062 228.353 175.014 228.185 174.966 227.561Z" fill="#1D201F"/>
<path d="M174.678 234.893C174.678 235.757 175.11 236.405 175.626 236.981L174.63 236.897L174.63 237.113C174.762 237.569 174.834 238.037 174.87 238.553L175.086 238.553C175.086 237.917 175.194 237.809 175.854 237.809L179.022 237.809C179.598 237.809 180.162 237.809 180.63 237.881L180.63 237.665C180.558 237.161 180.51 236.669 180.51 236.081L180.294 236.081C180.246 236.753 180.066 236.969 179.502 236.969L175.998 236.969C175.566 236.465 175.254 235.937 175.254 235.433C175.254 234.665 175.71 234.185 176.742 234.185L179.022 234.185C179.598 234.185 180.162 234.185 180.63 234.257L180.63 234.041C180.558 233.537 180.51 233.045 180.51 232.601L180.294 232.601C180.246 233.129 180.066 233.345 179.502 233.345L176.55 233.345C175.302 233.345 174.678 233.933 174.678 234.893Z" fill="#1D201F"/>
<path d="M174.63 241.778C174.63 242.354 174.906 242.966 175.374 243.446L175.554 243.314C175.35 242.99 175.206 242.63 175.206 242.258C175.206 241.754 175.422 241.37 176.154 241.37L179.994 241.37L179.994 243.242L180.51 243.326L180.51 241.37L181.806 241.37L181.806 241.154C181.086 240.89 180.498 240.578 180.234 239.846L179.994 239.846L179.994 240.542L175.914 240.542C175.002 240.542 174.63 241.07 174.63 241.778Z" fill="#1D201F"/>
<path d="M174.63 247.238C174.63 248.282 175.278 249.302 176.562 249.83L176.67 249.626C175.782 249.146 175.266 248.414 175.266 247.61C175.266 246.422 176.286 245.45 177.966 245.45C178.086 245.45 178.206 245.45 178.314 245.462L178.314 249.59C179.79 249.614 180.63 248.75 180.63 247.382C180.63 245.774 179.346 244.61 177.594 244.61C175.734 244.61 174.63 245.798 174.63 247.238ZM178.65 245.51C179.73 245.714 180.306 246.41 180.306 247.286C180.306 248.222 179.622 248.678 178.962 248.678C178.722 248.678 178.65 248.618 178.65 248.378L178.65 245.51Z" fill="#1D201F"/>
<path d="M174.966 251.113L174.75 251.113L174.75 253.633L174.966 253.633C175.014 252.961 175.062 252.793 175.53 252.793L179.022 252.793C179.598 252.793 180.15 252.793 180.63 252.865L180.63 252.649C180.45 252.241 180.306 251.737 180.246 251.209L180.03 251.209C179.946 251.737 179.742 251.953 179.022 251.953L175.53 251.953C175.062 251.953 175.014 251.785 174.966 251.113ZM182.814 251.689C182.49 251.689 182.238 251.941 182.238 252.265C182.238 252.577 182.49 252.841 182.814 252.841C183.138 252.841 183.39 252.577 183.39 252.265C183.39 251.941 183.138 251.689 182.814 251.689Z" fill="#1D201F"/>
<path d="M200.552 207.116C200.552 206.414 200.57 205.604 200.57 204.794H202.856C202.856 205.604 202.856 206.396 202.838 207.116H200.552ZM206.294 205.46C206.294 206.054 206.276 206.648 206.258 207.116H203.882C203.864 206.396 203.864 205.604 203.864 204.794H206.294V205.46ZM202.856 204.434H200.57C200.57 203.714 200.588 203.03 200.588 202.508H202.856V204.434ZM206.258 202.508C206.276 202.994 206.294 203.696 206.294 204.434H203.864V202.508H206.258ZM206.816 208.088C207.23 208.088 207.374 207.998 207.374 207.584V207.512C207.356 206.81 207.338 205.766 207.338 204.83V204.146C207.338 203.66 207.338 203.246 207.356 202.994C207.374 202.796 207.5 202.796 207.698 202.652C207.878 202.58 207.95 202.49 207.95 202.4C207.95 202.328 207.896 202.256 207.806 202.184C207.608 202.022 207.14 201.662 206.906 201.482C206.834 201.428 206.798 201.41 206.762 201.41C206.708 201.41 206.672 201.446 206.618 201.5C206.546 201.626 206.294 201.914 206.222 202.022C206.15 202.112 206.114 202.148 205.952 202.148H203.864V200.546H208.526C208.688 200.546 208.76 200.51 208.76 200.438C208.76 200.384 208.724 200.33 208.652 200.24C208.472 200.024 207.788 199.466 207.5 199.232C207.428 199.178 207.392 199.142 207.338 199.142C207.302 199.142 207.248 199.178 207.212 199.232C207.086 199.412 206.744 199.88 206.618 200.06C206.546 200.168 206.474 200.186 206.384 200.186H203.882C203.882 199.772 203.9 199.484 203.9 199.376C203.918 199.214 203.882 198.998 204.134 198.908C204.368 198.836 204.476 198.71 204.476 198.602C204.476 198.512 204.368 198.422 204.152 198.386C203.558 198.296 203.45 198.278 202.892 198.188C202.82 198.17 202.784 198.17 202.748 198.17C202.73 198.17 202.712 198.17 202.712 198.206C202.712 198.26 202.802 198.44 202.82 198.89C202.838 199.088 202.856 199.538 202.856 200.186H200.336C199.724 200.186 199.076 200.132 198.788 200.024C198.734 200.006 198.698 199.988 198.662 199.988C198.626 199.988 198.608 200.006 198.608 200.042C198.608 200.078 198.626 200.096 198.626 200.132C198.662 200.276 198.734 200.42 198.788 200.528C198.842 200.618 198.878 200.636 198.95 200.636H199.022C199.238 200.582 199.832 200.546 200.336 200.546H202.856V202.148H200.804C200.804 202.148 199.994 201.77 199.706 201.626C199.598 201.59 199.508 201.536 199.454 201.536C199.418 201.536 199.382 201.554 199.382 201.608C199.382 201.644 199.4 201.716 199.436 201.806C199.508 202.076 199.544 203.12 199.544 204.29C199.544 205.55 199.508 206.954 199.436 207.746V207.89C199.436 208.214 199.544 208.304 199.868 208.304H199.94C200.426 208.304 200.57 208.214 200.57 207.746V207.476H206.24V207.62C206.24 207.962 206.402 208.088 206.744 208.088H206.816ZM200.714 212.624C200.714 213.362 201.272 213.56 201.74 213.614C202.298 213.686 202.982 213.722 203.648 213.722C204.656 213.722 205.628 213.65 206.114 213.524C206.654 213.38 206.978 213.056 206.978 212.75C206.978 212.57 206.87 212.408 206.654 212.3C206.258 212.102 206.222 212.282 206.132 210.428C206.114 210.302 206.06 210.23 206.006 210.23C205.952 210.23 205.898 210.284 205.88 210.428C205.61 212.156 205.664 212.498 204.764 212.624C204.458 212.66 204.026 212.696 203.576 212.696C203.126 212.696 202.676 212.66 202.352 212.624C201.794 212.552 201.776 212.426 201.758 212.03C201.74 211.814 201.74 211.508 201.74 211.22C201.74 210.932 201.74 210.644 201.758 210.482C201.776 210.194 201.812 210.032 202.064 209.924C202.298 209.834 202.37 209.744 202.37 209.654C202.37 209.546 202.244 209.456 202.064 209.42C201.542 209.312 201.182 209.24 200.822 209.168C200.768 209.15 200.732 209.15 200.696 209.15C200.624 209.15 200.606 209.186 200.606 209.258C200.606 209.366 200.642 209.546 200.678 209.852C200.714 210.194 200.732 210.878 200.732 211.544C200.732 211.904 200.714 212.264 200.714 212.552V212.624ZM199.4 209.204C199.4 209.096 199.346 209.024 199.274 209.024C199.22 209.024 199.166 209.078 199.148 209.186C198.878 210.734 198.302 211.058 197.672 211.508C197.42 211.688 197.312 211.922 197.312 212.138C197.312 212.48 197.582 212.768 197.942 212.768C198.104 212.768 198.266 212.696 198.446 212.552C199.184 211.922 199.4 210.914 199.4 209.636V209.204ZM208.778 211.202C208.67 210.194 207.734 209.51 206.6 208.844C206.546 208.808 206.492 208.808 206.456 208.808C206.366 208.808 206.33 208.862 206.33 208.934C206.33 208.988 206.348 209.042 206.402 209.096C207.536 210.086 207.428 211.058 207.59 211.544C207.716 211.922 207.968 212.102 208.202 212.102C208.508 212.102 208.778 211.814 208.778 211.328V211.202ZM204.08 210.554C204.35 210.554 204.638 210.302 204.638 209.906C204.638 209.798 204.602 209.672 204.548 209.528C204.314 208.934 203.72 208.43 202.784 208.052C202.73 208.034 202.694 208.016 202.658 208.016C202.586 208.016 202.55 208.052 202.55 208.088C202.55 208.142 202.586 208.196 202.658 208.268C203.396 208.88 203.396 209.6 203.576 210.122C203.684 210.428 203.882 210.554 204.08 210.554ZM196.466 213.578C196.466 212.174 196.412 208.34 196.394 204.956C197.276 205.964 197.474 206.702 197.582 207.278C197.654 207.656 197.852 207.818 198.068 207.818C198.32 207.818 198.608 207.548 198.608 207.152C198.608 207.08 198.59 206.99 198.572 206.918C198.32 205.856 197.24 205.118 196.394 204.614V203.462H198.86C199.004 203.462 199.076 203.426 199.076 203.354C199.076 203.318 199.058 203.264 198.986 203.192C198.806 202.994 198.194 202.472 197.906 202.238C197.852 202.202 197.816 202.166 197.78 202.166C197.744 202.166 197.708 202.202 197.654 202.256C197.528 202.418 197.168 202.886 197.078 202.994C196.988 203.102 196.916 203.102 196.79 203.102H196.394C196.394 201.842 196.43 200.762 196.43 200.024C196.97 199.88 197.33 199.736 197.582 199.628C197.762 199.556 197.852 199.52 197.942 199.52C198.014 199.52 198.068 199.538 198.158 199.556C198.248 199.574 198.32 199.592 198.374 199.592C198.518 199.592 198.608 199.538 198.608 199.448C198.608 199.394 198.554 199.304 198.428 199.196C198.194 198.998 197.438 198.422 197.222 198.296C197.168 198.26 197.15 198.242 197.132 198.242C197.078 198.242 197.06 198.314 197.006 198.368C196.484 198.98 194.9 199.844 193.136 200.348C192.938 200.402 192.848 200.474 192.848 200.528C192.848 200.564 192.902 200.6 193.028 200.6H193.136C193.946 200.528 194.756 200.402 195.404 200.276C195.422 200.996 195.44 201.986 195.44 203.102H194.414C193.802 203.102 193.154 203.048 192.866 202.94C192.812 202.922 192.776 202.904 192.74 202.904C192.704 202.904 192.686 202.922 192.686 202.958C192.686 202.994 192.704 203.012 192.704 203.048C192.74 203.192 192.812 203.336 192.866 203.444C192.92 203.534 192.956 203.552 193.028 203.552H193.1C193.316 203.498 193.91 203.462 194.414 203.462H195.224C194.612 206.108 193.748 208.358 192.722 210.266C192.686 210.32 192.668 210.374 192.668 210.41C192.668 210.464 192.704 210.5 192.74 210.5C192.758 210.5 192.812 210.464 192.866 210.41C193.694 209.456 194.774 207.53 195.422 205.964C195.404 209.024 195.332 212.318 195.314 213.65V213.722C195.314 214.01 195.368 214.1 195.728 214.1H195.836C196.394 214.046 196.466 213.992 196.466 213.614V213.578Z" fill="#1D201F"/>
<path d="M197.528 234.6C197.51 233.538 197.51 232.224 197.51 230.928H199.994C199.994 232.062 199.994 233.304 199.976 234.6H197.528ZM203.648 232.836C203.648 233.466 203.648 234.06 203.63 234.6H201.164C201.146 233.322 201.146 232.08 201.146 230.928H203.648V232.836ZM199.994 230.568H197.51C197.51 229.488 197.51 228.426 197.528 227.508H199.994V230.568ZM201.146 230.568V227.508H203.63C203.648 228.426 203.648 229.488 203.648 230.568H201.146ZM208.652 238.344C208.76 238.344 208.832 238.308 208.832 238.236C208.832 238.2 208.814 238.164 208.76 238.11C208.562 237.912 207.608 237.102 207.374 236.922C207.302 236.868 207.266 236.85 207.212 236.85C207.176 236.85 207.158 236.868 207.122 236.922C206.942 237.192 206.51 237.804 206.42 237.894C206.312 237.984 206.258 237.984 206.168 237.984H201.2C201.182 236.958 201.182 235.968 201.164 234.96H207.5C207.662 234.96 207.734 234.924 207.734 234.852C207.734 234.798 207.698 234.744 207.626 234.654C207.446 234.438 206.708 233.826 206.42 233.592C206.348 233.538 206.312 233.502 206.258 233.502C206.222 233.502 206.168 233.538 206.132 233.592C206.006 233.772 205.61 234.294 205.484 234.474C205.412 234.582 205.34 234.6 205.25 234.6H204.8C204.782 233.538 204.782 232.224 204.782 230.928H208.652C208.76 230.928 208.832 230.892 208.832 230.82C208.832 230.784 208.814 230.748 208.76 230.694C208.562 230.496 207.608 229.686 207.374 229.506C207.302 229.452 207.266 229.434 207.212 229.434C207.176 229.434 207.158 229.452 207.122 229.506C206.942 229.776 206.51 230.388 206.42 230.478C206.312 230.568 206.258 230.568 206.168 230.568H204.782C204.782 229.488 204.782 228.426 204.8 227.508H207.5C207.662 227.508 207.734 227.472 207.734 227.4C207.734 227.346 207.698 227.292 207.626 227.202C207.446 226.986 206.708 226.374 206.42 226.14C206.348 226.086 206.312 226.05 206.258 226.05C206.222 226.05 206.168 226.086 206.132 226.14C206.006 226.32 205.61 226.842 205.484 227.022C205.412 227.13 205.34 227.148 205.25 227.148H201.164V226.626C201.164 225.96 201.182 225.42 201.182 225.06C202.442 224.988 203.9 224.772 204.89 224.592C205.016 224.574 205.124 224.52 205.268 224.52C205.358 224.52 205.466 224.538 205.592 224.592C205.736 224.646 205.862 224.664 205.952 224.664C206.096 224.664 206.168 224.61 206.168 224.538C206.168 224.466 206.114 224.376 205.97 224.268C205.628 223.98 204.746 223.386 204.548 223.26C204.458 223.206 204.422 223.17 204.386 223.17C204.332 223.17 204.278 223.242 204.152 223.332C203.342 223.8 199.796 224.574 195.08 224.97C194.864 224.988 194.702 225.096 194.702 225.186C194.702 225.258 194.792 225.312 195.062 225.312C195.512 225.312 195.962 225.294 196.394 225.294C197.69 225.258 198.878 225.222 199.958 225.15C199.976 225.618 199.976 226.302 199.994 227.148H195.458C194.846 227.148 194.198 227.094 193.91 226.986C193.856 226.968 193.82 226.95 193.784 226.95C193.748 226.95 193.73 226.968 193.73 227.004C193.73 227.04 193.748 227.058 193.748 227.094C193.784 227.238 193.856 227.382 193.91 227.49C193.964 227.58 194 227.598 194.072 227.598H194.144C194.36 227.544 194.954 227.508 195.458 227.508H196.358C196.376 228.426 196.376 229.488 196.376 230.568H194.378C193.766 230.568 193.118 230.514 192.83 230.406C192.776 230.388 192.74 230.37 192.704 230.37C192.668 230.37 192.65 230.388 192.65 230.424C192.65 230.46 192.668 230.478 192.668 230.514C192.704 230.658 192.776 230.802 192.83 230.91C192.884 231 192.92 231.018 192.992 231.018H193.064C193.28 230.964 193.874 230.928 194.378 230.928H196.376C196.376 232.224 196.376 233.52 196.358 234.6H195.458C194.846 234.6 194.198 234.546 193.91 234.438C193.856 234.42 193.82 234.402 193.784 234.402C193.748 234.402 193.73 234.42 193.73 234.456C193.73 234.492 193.748 234.51 193.748 234.546C193.784 234.69 193.856 234.834 193.91 234.942C193.964 235.032 194 235.05 194.072 235.05H194.144C194.36 234.996 194.954 234.96 195.458 234.96H199.976C199.976 235.95 199.958 236.958 199.94 237.984H194.378C193.766 237.984 193.118 237.93 192.83 237.822C192.776 237.804 192.74 237.786 192.704 237.786C192.668 237.786 192.65 237.804 192.65 237.84C192.65 237.876 192.668 237.894 192.668 237.93C192.704 238.074 192.776 238.218 192.83 238.326C192.884 238.416 192.92 238.434 192.992 238.434H193.064C193.28 238.38 193.874 238.344 194.378 238.344H208.652Z" fill="#1D201F"/>
<path d="M204.566 252.67C204.566 253.12 204.566 253.552 204.548 254.182H196.808C196.808 253.786 196.79 253.444 196.79 253.138C196.79 252.706 196.808 252.364 196.826 252.094H204.566V252.67ZM205.7 254.686C205.7 254.164 205.682 253.768 205.682 253.426C205.682 253.102 205.7 252.832 205.7 252.58C205.7 252.382 205.826 252.382 206.042 252.256C206.204 252.184 206.258 252.094 206.258 252.022C206.258 251.95 206.204 251.86 206.132 251.788C205.934 251.608 205.448 251.284 205.214 251.104C205.142 251.05 205.088 251.032 205.052 251.032C204.998 251.032 204.962 251.068 204.926 251.122C204.836 251.23 204.602 251.518 204.512 251.626C204.476 251.698 204.422 251.734 204.26 251.734H197.042C197.042 251.734 196.07 251.23 195.764 251.104C195.71 251.068 195.656 251.05 195.62 251.05C195.566 251.05 195.548 251.068 195.548 251.14C195.548 251.194 195.566 251.284 195.62 251.428C195.728 251.698 195.764 252.112 195.764 252.616C195.764 253.228 195.674 253.966 195.656 254.722V254.812C195.656 255.154 195.836 255.262 196.16 255.262H196.25C196.718 255.262 196.808 255.172 196.808 254.722V254.542H204.53V254.776C204.53 255.136 204.656 255.244 204.998 255.244H205.034C205.502 255.244 205.7 255.136 205.7 254.704V254.686ZM208.328 257.152C208.652 257.152 208.832 257.044 208.832 256.864C208.832 256.774 208.778 256.666 208.634 256.54C208.328 256.27 207.752 255.748 207.518 255.568C207.446 255.514 207.41 255.478 207.356 255.478C207.32 255.478 207.284 255.514 207.23 255.568C207.158 255.64 206.852 255.964 206.762 256.054C206.672 256.144 206.6 256.162 206.492 256.162H194.594C194.576 255.766 194.54 255.388 194.504 255.082C194.486 254.92 194.432 254.848 194.36 254.848C194.27 254.848 194.198 254.956 194.18 255.118C194.054 256.972 193.028 257.17 192.74 257.944C192.704 258.052 192.686 258.178 192.686 258.268C192.686 258.664 192.956 258.916 193.28 258.916C193.424 258.916 193.586 258.862 193.748 258.754C194.414 258.304 194.594 257.386 194.594 256.522H206.798C206.618 256.954 206.348 257.494 206.06 257.98C205.79 257.764 205.502 257.512 205.34 257.386C205.268 257.332 205.232 257.296 205.178 257.296C205.142 257.296 205.088 257.332 205.052 257.386C204.926 257.566 204.53 258.088 204.404 258.268C204.332 258.376 204.26 258.394 204.17 258.394H196.916C196.304 258.394 195.656 258.34 195.368 258.232C195.314 258.214 195.278 258.196 195.242 258.196C195.206 258.196 195.188 258.214 195.188 258.25C195.188 258.286 195.206 258.304 195.206 258.34C195.242 258.484 195.314 258.628 195.368 258.736C195.422 258.826 195.458 258.844 195.53 258.844H195.602C195.818 258.79 196.412 258.754 196.916 258.754H200.354C200.372 259.096 200.39 259.636 200.39 260.212C200.39 260.878 200.372 261.598 200.336 262.12C200.318 262.39 200.318 262.48 200.012 262.48C199.472 262.48 198.248 262.39 197.87 262.336H197.816C197.726 262.336 197.672 262.372 197.672 262.426C197.672 262.48 197.726 262.534 197.834 262.57C199.004 262.894 199.454 262.93 199.598 263.902C199.616 264.028 199.652 264.1 199.778 264.1H199.832C201.38 263.866 201.524 263.308 201.524 262.606V262.192C201.524 261.49 201.506 260.914 201.506 260.428C201.506 259.78 201.506 259.258 201.524 258.754H206.42C206.582 258.754 206.654 258.718 206.654 258.646C206.654 258.592 206.618 258.538 206.546 258.448L206.366 258.268C206.33 258.25 206.312 258.214 206.276 258.196C207.068 257.548 207.482 257.152 208.112 257.152H208.328ZM208.184 250.42C208.346 250.42 208.418 250.384 208.418 250.33C208.418 250.294 208.4 250.24 208.328 250.186C208.094 249.97 207.374 249.358 206.906 248.998C206.852 248.962 206.798 248.926 206.762 248.926C206.726 248.926 206.69 248.944 206.654 248.998C206.384 249.358 206.204 249.592 205.898 249.97C205.844 250.042 205.754 250.06 205.664 250.06H201.02C201.02 249.826 201.038 250.006 201.038 249.394V249.34C201.038 249.178 201.056 248.998 201.272 248.926C201.506 248.854 201.614 248.728 201.614 248.62C201.614 248.53 201.506 248.44 201.29 248.404C200.696 248.314 200.57 248.296 200.012 248.206C199.94 248.188 199.886 248.188 199.868 248.188C199.814 248.188 199.796 248.206 199.796 248.26C199.796 248.35 199.85 248.548 199.904 248.908C199.922 249.016 199.922 249.286 199.922 249.718V250.06H194.792C194.18 250.06 193.532 250.006 193.244 249.898C193.19 249.88 193.154 249.862 193.118 249.862C193.082 249.862 193.064 249.88 193.064 249.916C193.064 249.952 193.082 249.97 193.082 250.006C193.118 250.15 193.19 250.294 193.244 250.402C193.298 250.492 193.334 250.51 193.406 250.51H193.478C193.694 250.456 194.288 250.42 194.792 250.42H208.184Z" fill="#1D201F"/>
<path d="M254.314 287.559L254.156 287.559L254.156 289.698L254.314 289.698C254.349 289.09 254.411 288.967 254.763 288.967L260.307 288.967L260.307 289.61C260.307 290.56 260.148 290.762 259.057 291.211L259.057 291.396L260.615 291.097C260.58 290.921 260.562 290.595 260.562 290.243L260.562 287.005C260.562 286.653 260.58 286.336 260.615 286.16L259.057 285.852L259.057 286.046C260.148 286.494 260.307 286.688 260.307 287.647L260.307 288.29L254.763 288.29C254.411 288.29 254.349 288.166 254.314 287.559Z" fill="#1D201F"/>
<path d="M254.068 293.385C254.068 294.599 254.965 295.541 256.32 295.541C257.605 295.541 258.468 294.608 258.468 293.455C258.468 292.241 257.57 291.29 256.215 291.29C254.93 291.29 254.068 292.223 254.068 293.385ZM256.426 291.95C257.535 291.95 258.212 292.549 258.212 293.341C258.212 294.265 257.209 294.881 256.109 294.881C255.001 294.881 254.323 294.282 254.323 293.499C254.323 292.566 255.326 291.95 256.426 291.95Z" fill="#1D201F"/>
<path d="M254.121 300.12C254.121 300.402 254.138 300.727 254.156 300.859L254.314 300.859C254.349 300.604 254.473 300.34 254.86 300.041L256.752 298.633L257.438 299.328C258.01 299.918 258.168 300.358 258.221 300.789L258.38 300.789L258.38 299.064L258.221 299.064C258.221 299.293 258.133 299.399 257.992 299.399C257.896 299.399 257.772 299.293 257.561 299.082L256.259 297.771L259.506 297.771C260.21 297.771 260.615 297.771 260.967 297.823L260.967 297.665C260.782 297.357 260.676 297.014 260.632 296.644L260.474 296.644C260.412 297.084 260.254 297.163 259.506 297.163L254.728 297.163C254.385 297.163 254.349 297.04 254.314 296.574L254.156 296.574L254.156 298.325L254.314 298.325C254.349 297.894 254.385 297.771 254.728 297.771L255.916 297.771L256.136 297.991C256.206 298.061 256.25 298.105 256.25 298.175C256.25 298.237 256.206 298.29 256.136 298.343L254.605 299.469C254.27 299.715 254.121 299.882 254.121 300.12Z" fill="#1D201F"/>
<path d="M251.78 302.228C251.78 302.773 252.149 303.081 253.021 303.415L257.491 305.131C257.948 305.299 258.177 305.536 258.221 305.879L258.38 305.879L258.38 304.401L258.221 304.401C258.177 304.955 257.896 304.982 257.508 304.832L254.921 303.855L257.711 302.72C258.036 302.58 258.195 302.606 258.221 303.213L258.38 303.213L258.38 301.436L258.221 301.436C258.177 301.805 258.036 301.92 257.561 302.122L254.121 303.547L253.091 303.16C252.466 302.923 252.317 302.729 252.317 302.571C252.317 302.43 252.431 302.289 252.431 302.104C252.431 301.911 252.299 301.788 252.123 301.788C251.947 301.788 251.78 301.937 251.78 302.228Z" fill="#1D201F"/>
<path d="M254.068 308.609C254.068 309.824 254.965 310.765 256.32 310.765C257.605 310.765 258.468 309.832 258.468 308.68C258.468 307.465 257.57 306.515 256.215 306.515C254.93 306.515 254.068 307.448 254.068 308.609ZM256.426 307.175C257.535 307.175 258.212 307.773 258.212 308.565C258.212 309.489 257.209 310.105 256.109 310.105C255.001 310.105 254.323 309.507 254.323 308.724C254.323 307.791 255.326 307.175 256.426 307.175Z" fill="#1D201F"/>
<path d="M271.711 291.576H269.251V290.1H271.711V291.576ZM275.035 290.1C275.035 290.568 275.035 291.084 275.023 291.576H272.443V290.1H275.035ZM271.711 289.86H269.263V288.588H271.711V289.86ZM275.035 289.86H272.443C272.443 289.632 272.431 289.404 272.431 289.2C272.431 288.984 272.431 288.792 272.443 288.588H275.035V289.86ZM272.491 295.836C272.479 295.092 272.455 293.424 272.443 291.816H272.515C273.523 293.64 275.251 294.78 276.715 295.26C276.739 295.272 276.763 295.272 276.787 295.272C276.835 295.272 276.847 295.236 276.859 295.188C276.967 294.84 277.075 294.648 277.447 294.48C277.495 294.444 277.531 294.408 277.531 294.372C277.531 294.336 277.507 294.312 277.435 294.3C275.695 294.048 274.015 293.436 272.755 291.816H275.023C275.011 291.876 275.011 291.948 275.011 292.008V292.068C275.011 292.332 275.095 292.416 275.347 292.416H275.395C275.707 292.416 275.815 292.356 275.815 292.056V292.008C275.803 291.396 275.791 290.928 275.791 290.556C275.791 289.896 275.803 289.488 275.815 288.972C275.815 288.828 275.911 288.828 276.067 288.732C276.187 288.672 276.235 288.612 276.235 288.54C276.235 288.492 276.199 288.432 276.139 288.384C275.995 288.264 275.659 288 275.503 287.88C275.455 287.832 275.419 287.82 275.383 287.82C275.347 287.82 275.323 287.844 275.287 287.892C275.227 287.976 275.059 288.192 274.999 288.264C274.951 288.324 274.927 288.348 274.819 288.348H272.443V287.208H277.159C277.267 287.208 277.315 287.184 277.315 287.136C277.315 287.112 277.303 287.076 277.255 287.028C277.147 286.908 276.667 286.56 276.343 286.296C276.307 286.26 276.283 286.236 276.247 286.236C276.223 286.236 276.199 286.26 276.175 286.296C275.983 286.56 275.899 286.644 275.695 286.884C275.659 286.932 275.599 286.968 275.539 286.968H272.455V286.788C272.455 286.572 272.467 286.464 272.467 286.392C272.479 286.284 272.455 286.14 272.623 286.08C272.779 286.032 272.851 285.948 272.851 285.888C272.851 285.816 272.779 285.756 272.635 285.732C272.263 285.66 271.855 285.6 271.759 285.6H271.687C271.639 285.6 271.627 285.6 271.627 285.636C271.627 285.684 271.663 285.804 271.687 286.068C271.687 286.116 271.699 286.38 271.699 286.968H268.207C267.799 286.968 267.367 286.932 267.175 286.86C267.139 286.848 267.115 286.836 267.091 286.836C267.067 286.836 267.055 286.848 267.055 286.872C267.055 286.896 267.067 286.908 267.067 286.932C267.091 287.028 267.139 287.124 267.175 287.196C267.211 287.256 267.235 287.268 267.283 287.268H267.331C267.475 287.232 267.871 287.208 268.207 287.208H271.699C271.699 287.556 271.711 287.904 271.711 288.348H269.407C269.407 288.348 268.747 287.976 268.531 287.88C268.483 287.856 268.447 287.844 268.423 287.844C268.387 287.844 268.363 287.868 268.363 287.916C268.363 287.952 268.387 288.024 268.423 288.12C268.495 288.348 268.531 289.008 268.531 289.776C268.531 290.58 268.471 291.504 268.447 292.152V292.248C268.447 292.488 268.531 292.56 268.783 292.56H268.831C269.167 292.56 269.251 292.488 269.251 292.152V291.816H270.907C270.043 293.28 268.459 294.36 266.863 295.284C266.815 295.308 266.779 295.356 266.779 295.392C266.779 295.428 266.803 295.452 266.851 295.452C266.863 295.452 266.875 295.44 266.887 295.44C269.107 294.792 270.871 293.268 271.711 292.068C271.711 293.592 271.663 295.212 271.651 295.884V295.944C271.651 296.124 271.699 296.22 271.915 296.22C271.951 296.22 271.999 296.22 272.047 296.208C272.431 296.148 272.491 296.124 272.491 295.908V295.836Z" fill="#1D201F"/>
<path d="M274.831 305.676C274.843 306.096 274.855 306.432 274.855 306.828C274.855 307.152 274.843 307.512 274.831 307.968H269.419C269.407 307.116 269.407 306.648 269.407 306.216V305.676H274.831ZM271.663 313.02C272.551 312.912 272.623 312.468 272.623 312.048V311.772C272.623 311.232 272.611 310.632 272.611 310.02C272.611 309.432 272.623 308.82 272.623 308.208H274.819V308.364C274.819 308.652 274.939 308.736 275.203 308.736H275.251C275.563 308.736 275.671 308.676 275.671 308.376V308.328C275.659 307.656 275.647 307.284 275.647 306.948C275.647 306.672 275.647 306.432 275.659 306.06C275.659 305.916 275.719 305.868 275.911 305.82C276.019 305.784 276.067 305.736 276.067 305.664C276.067 305.604 276.031 305.544 275.971 305.496C275.827 305.376 275.503 305.112 275.347 304.992C275.299 304.944 275.251 304.932 275.215 304.932C275.155 304.932 275.119 304.956 275.083 305.004C275.023 305.088 274.855 305.28 274.795 305.352C274.747 305.412 274.723 305.436 274.615 305.436H269.563C269.563 305.436 268.831 305.064 268.615 304.968C268.567 304.944 268.531 304.932 268.507 304.932C268.471 304.932 268.459 304.956 268.459 305.004C268.459 305.04 268.471 305.112 268.507 305.208C268.591 305.448 268.627 305.976 268.627 306.6C268.627 307.176 268.579 307.836 268.555 308.448V308.544C268.555 308.784 268.639 308.856 268.891 308.856H268.939C269.287 308.856 269.419 308.784 269.419 308.448V308.208H271.879V311.796C271.879 311.916 271.867 311.988 271.699 311.988H271.651C271.291 311.988 270.655 311.928 270.391 311.904H270.355C270.283 311.904 270.247 311.928 270.247 311.964C270.247 312 270.295 312.048 270.367 312.072C271.147 312.336 271.399 312.336 271.483 312.888C271.495 312.972 271.531 313.02 271.627 313.02H271.663ZM276.703 311.916C276.931 311.916 277.099 311.736 277.099 311.472C277.099 311.34 277.051 311.196 276.955 311.028C276.631 310.5 275.167 309.672 273.835 309.42C273.811 309.42 273.787 309.408 273.763 309.408C273.691 309.408 273.655 309.444 273.655 309.48C273.655 309.528 273.703 309.576 273.775 309.6C274.891 309.972 275.755 311.016 276.163 311.568C276.343 311.808 276.535 311.916 276.703 311.916ZM270.715 309.888C270.823 309.888 270.919 309.816 270.919 309.72C270.919 309.66 270.871 309.6 270.763 309.54C270.535 309.42 270.199 309.216 269.851 309.048C269.815 309.036 269.791 309.024 269.779 309.024C269.755 309.024 269.755 309.048 269.743 309.084C269.551 309.732 268.231 311.124 266.911 311.916C266.827 311.964 266.791 312.024 266.791 312.06C266.791 312.096 266.815 312.12 266.875 312.12C266.911 312.12 266.959 312.108 267.031 312.084C267.991 311.748 269.611 310.752 270.259 309.972C270.319 309.9 270.403 309.864 270.511 309.864C270.571 309.864 270.619 309.864 270.691 309.888H270.715ZM277.231 304.176C277.327 304.176 277.387 304.14 277.387 304.092C277.387 304.068 277.363 304.032 277.327 303.996C277.219 303.876 276.691 303.468 276.379 303.204C276.343 303.168 276.319 303.156 276.283 303.156C276.259 303.156 276.235 303.168 276.211 303.204C276.031 303.444 275.911 303.6 275.707 303.852C275.671 303.9 275.611 303.936 275.551 303.936H272.455C272.455 303.66 272.467 303.636 272.467 303.216V303.18C272.467 303.072 272.479 302.952 272.623 302.904C272.779 302.856 272.851 302.772 272.851 302.7C272.851 302.64 272.779 302.58 272.635 302.556C272.239 302.496 272.131 302.484 271.759 302.424C271.711 302.412 271.675 302.412 271.663 302.412C271.627 302.412 271.615 302.424 271.615 302.46C271.615 302.52 271.651 302.652 271.687 302.892C271.699 302.964 271.699 303.288 271.699 303.66V303.936H268.039C267.631 303.936 267.199 303.9 267.007 303.828C266.971 303.816 266.947 303.804 266.923 303.804C266.899 303.804 266.887 303.816 266.887 303.84C266.887 303.864 266.899 303.876 266.899 303.9C266.923 303.996 266.971 304.092 267.007 304.164C267.043 304.224 267.067 304.236 267.115 304.236H267.163C267.307 304.2 267.703 304.176 268.039 304.176H277.231Z" fill="#1D201F"/>
<path d="M134.035 353.886L133.877 353.886L133.877 356.078L134.035 356.078C134.079 355.585 134.202 355.347 134.871 354.846L137.582 352.672L139.026 354.089C139.897 354.943 140.082 355.409 140.126 355.972L140.284 355.972L140.284 353.93L140.126 353.93C140.099 354.555 139.871 354.503 139.131 353.79L136.94 351.668L139.677 351.668C140.029 351.668 140.091 351.792 140.126 352.399L140.284 352.399L140.284 350.26L140.126 350.26C140.091 350.868 140.029 350.991 139.677 350.991L134.484 350.991C134.132 350.991 134.07 350.868 134.035 350.26L133.877 350.26L133.877 352.399L134.035 352.399C134.07 351.792 134.132 351.668 134.484 351.668L136.57 351.668L136.869 351.959C136.948 352.038 136.992 352.091 136.992 352.161C136.992 352.232 136.966 352.293 136.878 352.355L134.528 354.265C134.194 354.52 134.053 354.503 134.035 353.886Z" fill="#1D201F"/>
<path d="M131.5 356.66C131.5 357.205 131.87 357.513 132.741 357.848L137.212 359.564C137.67 359.731 137.899 359.969 137.943 360.312L138.101 360.312L138.101 358.834L137.943 358.834C137.899 359.388 137.617 359.415 137.23 359.265L134.642 358.288L137.433 357.153C137.758 357.012 137.917 357.038 137.943 357.645L138.101 357.645L138.101 355.868L137.943 355.868C137.899 356.237 137.758 356.352 137.283 356.554L133.842 357.98L132.812 357.593C132.187 357.355 132.037 357.161 132.037 357.003C132.037 356.862 132.152 356.721 132.152 356.537C132.152 356.343 132.02 356.22 131.844 356.22C131.668 356.22 131.5 356.369 131.5 356.66Z" fill="#1D201F"/>
<path d="M133.789 363.043C133.789 364.257 134.686 365.199 136.042 365.199C137.327 365.199 138.189 364.266 138.189 363.113C138.189 361.898 137.292 360.948 135.936 360.948C134.651 360.948 133.789 361.881 133.789 363.043ZM136.147 361.608C137.256 361.608 137.934 362.207 137.934 362.999C137.934 363.923 136.931 364.539 135.831 364.539C134.722 364.539 134.044 363.94 134.044 363.157C134.044 362.224 135.047 361.608 136.147 361.608Z" fill="#1D201F"/>
<path d="M133.789 367.684C133.789 368.107 133.991 368.556 134.334 368.908L134.466 368.811C134.317 368.573 134.211 368.309 134.211 368.036C134.211 367.667 134.37 367.385 134.906 367.385L137.723 367.385L137.723 368.758L138.101 368.82L138.101 367.385L139.052 367.385L139.052 367.227C138.524 367.033 138.093 366.804 137.899 366.267L137.723 366.267L137.723 366.778L134.73 366.778C134.062 366.778 133.789 367.165 133.789 367.684Z" fill="#1D201F"/>
<path d="M133.789 371.856C133.789 373.071 134.686 374.012 136.042 374.012C137.327 374.012 138.189 373.08 138.189 371.927C138.189 370.712 137.292 369.761 135.936 369.761C134.651 369.761 133.789 370.694 133.789 371.856ZM136.147 370.421C137.256 370.421 137.934 371.02 137.934 371.812C137.934 372.736 136.931 373.352 135.831 373.352C134.722 373.352 134.044 372.754 134.044 371.971C134.044 371.038 135.047 370.421 136.147 370.421Z" fill="#1D201F"/>
<path d="M152.154 352.265C152.166 352.685 152.178 353.021 152.178 353.417C152.178 353.741 152.166 354.101 152.154 354.557H146.742C146.73 353.705 146.73 353.237 146.73 352.805V352.265H152.154ZM148.986 359.61C149.874 359.502 149.946 359.058 149.946 358.638V358.362C149.946 357.821 149.934 357.221 149.934 356.609C149.934 356.021 149.946 355.409 149.946 354.797H152.142V354.953C152.142 355.241 152.263 355.325 152.527 355.325H152.575C152.887 355.325 152.995 355.265 152.995 354.965V354.917C152.983 354.245 152.971 353.873 152.971 353.537C152.971 353.261 152.971 353.021 152.983 352.649C152.983 352.505 153.043 352.457 153.235 352.409C153.343 352.373 153.391 352.325 153.391 352.253C153.391 352.193 153.355 352.133 153.295 352.085C153.151 351.964 152.827 351.7 152.671 351.58C152.623 351.532 152.575 351.52 152.539 351.52C152.479 351.52 152.443 351.544 152.407 351.592C152.347 351.676 152.178 351.868 152.118 351.94C152.07 352 152.046 352.024 151.938 352.024H146.886C146.886 352.024 146.153 351.652 145.937 351.556C145.889 351.532 145.853 351.52 145.829 351.52C145.793 351.52 145.781 351.544 145.781 351.592C145.781 351.628 145.793 351.7 145.829 351.796C145.913 352.037 145.949 352.565 145.949 353.189C145.949 353.765 145.901 354.425 145.877 355.037V355.133C145.877 355.373 145.961 355.445 146.214 355.445H146.262C146.61 355.445 146.742 355.373 146.742 355.037V354.797H149.202V358.386C149.202 358.506 149.19 358.578 149.022 358.578H148.974C148.614 358.578 147.978 358.518 147.714 358.494H147.678C147.606 358.494 147.57 358.518 147.57 358.554C147.57 358.59 147.618 358.638 147.69 358.662C148.47 358.926 148.722 358.926 148.806 359.478C148.818 359.562 148.854 359.61 148.95 359.61H148.986ZM154.027 358.506C154.255 358.506 154.423 358.326 154.423 358.061C154.423 357.929 154.375 357.785 154.279 357.617C153.955 357.089 152.491 356.261 151.158 356.009C151.134 356.009 151.11 355.997 151.086 355.997C151.014 355.997 150.978 356.033 150.978 356.069C150.978 356.117 151.026 356.165 151.098 356.189C152.214 356.561 153.079 357.605 153.487 358.158C153.667 358.398 153.859 358.506 154.027 358.506ZM148.038 356.477C148.146 356.477 148.242 356.405 148.242 356.309C148.242 356.249 148.194 356.189 148.086 356.129C147.858 356.009 147.522 355.805 147.174 355.637C147.138 355.625 147.114 355.613 147.102 355.613C147.078 355.613 147.078 355.637 147.066 355.673C146.874 356.321 145.553 357.713 144.233 358.506C144.149 358.554 144.113 358.614 144.113 358.65C144.113 358.686 144.137 358.71 144.197 358.71C144.233 358.71 144.281 358.698 144.353 358.674C145.313 358.338 146.934 357.341 147.582 356.561C147.642 356.489 147.726 356.453 147.834 356.453C147.894 356.453 147.942 356.453 148.014 356.477H148.038ZM154.555 350.764C154.651 350.764 154.711 350.728 154.711 350.68C154.711 350.656 154.687 350.62 154.651 350.584C154.543 350.464 154.015 350.056 153.703 349.792C153.667 349.756 153.643 349.744 153.607 349.744C153.583 349.744 153.559 349.756 153.535 349.792C153.355 350.032 153.235 350.188 153.031 350.44C152.995 350.488 152.935 350.524 152.875 350.524H149.778C149.778 350.248 149.79 350.224 149.79 349.804V349.768C149.79 349.66 149.802 349.54 149.946 349.492C150.102 349.444 150.174 349.36 150.174 349.288C150.174 349.228 150.102 349.168 149.958 349.144C149.562 349.084 149.454 349.072 149.082 349.012C149.034 349 148.998 349 148.986 349C148.95 349 148.938 349.012 148.938 349.048C148.938 349.108 148.974 349.24 149.01 349.48C149.022 349.552 149.022 349.876 149.022 350.248V350.524H145.361C144.953 350.524 144.521 350.488 144.329 350.416C144.293 350.404 144.269 350.392 144.245 350.392C144.221 350.392 144.209 350.404 144.209 350.428C144.209 350.452 144.221 350.464 144.221 350.488C144.245 350.584 144.293 350.68 144.329 350.752C144.365 350.812 144.389 350.824 144.437 350.824H144.485C144.629 350.788 145.025 350.764 145.361 350.764H154.555Z" fill="#1D201F"/>
<path d="M149.094 373.376C149.094 373.976 149.094 374.636 149.082 375.188H146.37V373.376H149.094ZM149.082 371.684C149.094 371.948 149.094 372.5 149.094 373.136H146.37C146.382 372.5 146.382 371.96 146.382 371.684H149.082ZM149.466 376.269C149.754 376.269 149.85 376.208 149.85 375.932V375.884C149.838 375.356 149.814 374.6 149.814 373.892C149.814 373.088 149.826 372.32 149.838 372.008C149.838 371.876 149.934 371.876 150.066 371.78C150.186 371.732 150.234 371.672 150.234 371.612C150.234 371.564 150.198 371.516 150.138 371.468C150.006 371.36 149.682 371.12 149.526 371C149.478 370.964 149.454 370.952 149.43 370.952C149.394 370.952 149.37 370.976 149.334 371.012C149.238 371.132 149.106 371.288 149.058 371.36C149.01 371.42 148.986 371.444 148.878 371.444H146.526C146.526 371.444 146.478 371.42 146.394 371.372C147.246 370.904 147.906 370.412 148.494 369.847H151.098C151.206 369.847 151.254 369.823 151.254 369.775C151.254 369.739 151.23 369.703 151.182 369.643C151.062 369.499 150.594 369.115 150.402 368.959C150.354 368.923 150.33 368.899 150.294 368.899C150.27 368.899 150.234 368.923 150.21 368.959C150.126 369.079 149.862 369.403 149.778 369.523C149.73 369.595 149.682 369.607 149.622 369.607H148.734C149.346 368.971 149.874 368.239 150.402 367.363C150.462 367.255 150.546 367.255 150.726 367.219C150.834 367.195 150.882 367.147 150.882 367.087C150.882 367.027 150.846 366.979 150.774 366.943C150.522 366.811 150.234 366.667 149.958 366.547C149.922 366.535 149.898 366.523 149.874 366.523C149.826 366.523 149.838 366.583 149.814 366.655C149.442 367.699 148.854 368.659 147.894 369.607H147.414V367.771H149.082C149.178 367.771 149.226 367.747 149.226 367.699C149.226 367.663 149.214 367.627 149.178 367.591C149.01 367.411 148.71 367.123 148.53 366.979C148.494 366.955 148.47 366.943 148.434 366.943C148.41 366.943 148.386 366.955 148.362 366.979C148.218 367.147 148.11 367.291 147.978 367.447C147.942 367.495 147.882 367.531 147.822 367.531H147.414C147.414 367.135 147.426 366.811 147.426 366.619V366.583C147.426 366.475 147.438 366.355 147.594 366.307C147.738 366.259 147.81 366.175 147.81 366.115C147.81 366.043 147.738 365.983 147.594 365.959C147.366 365.923 147.018 365.875 146.718 365.827C146.67 365.815 146.634 365.815 146.622 365.815C146.586 365.815 146.574 365.827 146.574 365.863C146.574 365.923 146.61 366.055 146.646 366.295C146.658 366.343 146.658 366.859 146.658 367.531H145.997C145.589 367.531 145.157 367.495 144.965 367.423C144.929 367.411 144.905 367.399 144.881 367.399C144.857 367.399 144.845 367.411 144.845 367.435C144.845 367.459 144.857 367.471 144.857 367.495C144.881 367.591 144.929 367.687 144.965 367.759C145.001 367.819 145.025 367.831 145.073 367.831H145.121C145.265 367.795 145.661 367.771 145.997 367.771H146.658V369.607H145.229C144.821 369.607 144.389 369.571 144.197 369.499C144.161 369.487 144.137 369.475 144.113 369.475C144.089 369.475 144.077 369.487 144.077 369.511C144.077 369.535 144.089 369.547 144.089 369.571C144.113 369.667 144.161 369.763 144.197 369.835C144.233 369.895 144.257 369.907 144.305 369.907H144.353C144.497 369.871 144.893 369.847 145.229 369.847H147.63C147.174 370.28 146.646 370.724 145.961 371.132C145.853 371.084 145.757 371.024 145.697 371C145.649 370.976 145.613 370.976 145.589 370.976C145.565 370.976 145.553 370.988 145.553 371.036C145.553 371.072 145.565 371.132 145.589 371.216C145.601 371.24 145.601 371.3 145.613 371.36C145.157 371.648 144.665 371.936 144.125 372.224C144.101 372.236 144.089 372.26 144.089 372.284C144.089 372.332 144.125 372.38 144.173 372.38C144.173 372.38 144.185 372.368 144.197 372.368C144.725 372.164 145.205 371.96 145.637 371.756C145.649 372.14 145.661 372.692 145.661 373.268C145.661 374.324 145.637 375.488 145.589 376.04C145.589 376.064 145.589 376.088 145.589 376.112C145.589 376.341 145.697 376.413 145.913 376.413H145.961C146.286 376.413 146.37 376.353 146.37 376.04V375.428H149.082C149.082 375.596 149.07 375.752 149.07 375.884V375.92C149.07 376.184 149.178 376.269 149.418 376.269H149.466ZM152.118 376.028C152.118 375.488 152.106 374.288 152.106 372.92C152.106 370.195 152.118 366.823 152.118 366.823H153.559C153.367 367.663 152.995 368.947 152.551 370.147C153.607 371.144 153.883 372.2 153.883 372.956C153.883 373.424 153.775 373.772 153.679 373.928C153.619 374.036 153.451 374.072 153.211 374.072C152.995 374.072 152.719 374.048 152.419 374.012H152.395C152.347 374.012 152.311 374.036 152.311 374.072C152.311 374.096 152.335 374.132 152.383 374.156C152.971 374.396 153.175 374.396 153.259 374.9C153.283 374.984 153.307 375.032 153.379 375.032C153.403 375.032 153.427 375.032 153.451 375.02C153.919 374.9 154.423 374.672 154.567 373.904C154.603 373.712 154.627 373.496 154.627 373.256C154.627 372.404 154.279 371.324 152.815 370.099C153.379 369.199 153.835 368.239 154.351 367.135C154.399 367.039 154.543 367.027 154.639 367.003C154.735 366.991 154.795 366.931 154.795 366.859C154.795 366.799 154.771 366.739 154.711 366.691C154.603 366.595 154.255 366.331 154.051 366.199C153.991 366.163 153.967 366.139 153.931 366.139C153.907 366.139 153.883 366.163 153.847 366.199C153.787 366.271 153.667 366.403 153.583 366.499C153.523 366.571 153.487 366.583 153.391 366.583H152.263C151.974 366.427 151.626 366.211 151.398 366.103C151.35 366.091 151.314 366.079 151.278 366.079C151.242 366.079 151.23 366.091 151.23 366.139C151.23 366.187 151.242 366.247 151.278 366.355C151.35 366.559 151.374 368.155 151.374 370.015C151.374 372.344 151.302 375.092 151.29 376.064V376.112C151.29 376.341 151.374 376.413 151.686 376.413C152.058 376.365 152.118 376.293 152.118 376.052V376.028Z" fill="#1D201F"/>
<path d="M259.75 318.75C259.75 320.407 258.407 321.75 256.75 321.75C255.093 321.75 253.75 320.407 253.75 318.75C253.75 317.093 255.093 315.75 256.75 315.75C258.407 315.75 259.75 317.093 259.75 318.75Z" fill="#1D201F"/>
<path d="M139.75 342.75C139.75 344.407 138.407 345.75 136.75 345.75C135.093 345.75 133.75 344.407 133.75 342.75C133.75 341.093 135.093 339.75 136.75 339.75C138.407 339.75 139.75 341.093 139.75 342.75Z" fill="#1D201F"/>
</g>
<defs>
<clipPath id="clip0_1827_8805">
<rect width="12" height="15.6" fill="white" transform="translate(211.75 264.75)"/>
</clipPath>
</defs>
</svg>
